G04*
G04 #@! TF.GenerationSoftware,Altium Limited,Altium Designer,24.2.2 (26)*
G04*
G04 Layer_Color=32896*
%FSLAX44Y44*%
%MOMM*%
G71*
G04*
G04 #@! TF.SameCoordinates,FD859A0A-F5B6-4767-9988-903C0D25BE4A*
G04*
G04*
G04 #@! TF.FilePolarity,Positive*
G04*
G01*
G75*
G36*
X241300Y31750D02*
Y11430D01*
X50393D01*
Y32225D01*
X114128D01*
Y49008D01*
X241300D01*
Y31750D01*
D02*
G37*
%LPC*%
G36*
X134533Y46841D02*
X133515D01*
Y33972D01*
X135089D01*
Y43990D01*
X135107Y43971D01*
X135200Y43897D01*
X135311Y43786D01*
X135496Y43656D01*
X135700Y43490D01*
X135959Y43305D01*
X136255Y43101D01*
X136588Y42897D01*
X136607D01*
X136625Y42879D01*
X136737Y42805D01*
X136922Y42712D01*
X137144Y42601D01*
X137403Y42471D01*
X137681Y42342D01*
X137959Y42212D01*
X138236Y42101D01*
Y43619D01*
X138218D01*
X138181Y43656D01*
X138107Y43675D01*
X138014Y43730D01*
X137903Y43786D01*
X137774Y43860D01*
X137459Y44045D01*
X137088Y44249D01*
X136718Y44508D01*
X136329Y44804D01*
X135940Y45119D01*
X135922Y45138D01*
X135903Y45156D01*
X135848Y45212D01*
X135774Y45267D01*
X135607Y45452D01*
X135385Y45675D01*
X135163Y45934D01*
X134922Y46230D01*
X134718Y46526D01*
X134533Y46841D01*
D02*
G37*
G36*
X152068Y46786D02*
X150217D01*
X146884Y37472D01*
Y37453D01*
X146865Y37416D01*
X146847Y37361D01*
X146810Y37287D01*
X146791Y37176D01*
X146754Y37064D01*
X146662Y36787D01*
X146550Y36472D01*
X146439Y36120D01*
X146217Y35380D01*
Y35398D01*
X146199Y35435D01*
X146180Y35491D01*
X146161Y35565D01*
X146106Y35768D01*
X146013Y36046D01*
X145921Y36361D01*
X145810Y36713D01*
X145680Y37083D01*
X145532Y37472D01*
X142051Y46786D01*
X140329D01*
X145328Y33972D01*
X147106D01*
X152068Y46786D01*
D02*
G37*
G36*
X200878Y46508D02*
Y43267D01*
X199286D01*
Y42045D01*
X200878D01*
Y36583D01*
Y36546D01*
Y36472D01*
Y36361D01*
X200860Y36231D01*
X200841Y35935D01*
X200823Y35805D01*
X200804Y35713D01*
X200786Y35676D01*
X200730Y35602D01*
X200656Y35509D01*
X200526Y35417D01*
X200489Y35398D01*
X200397Y35361D01*
X200230Y35324D01*
X199989Y35305D01*
X199804D01*
X199711Y35324D01*
X199582D01*
X199434Y35342D01*
X199286Y35361D01*
X199082Y33972D01*
X199119D01*
X199193Y33954D01*
X199323Y33935D01*
X199489Y33917D01*
X199674Y33880D01*
X199878Y33861D01*
X200285Y33843D01*
X200434D01*
X200582Y33861D01*
X200767Y33880D01*
X200989Y33898D01*
X201211Y33954D01*
X201415Y34009D01*
X201619Y34102D01*
X201637Y34120D01*
X201693Y34157D01*
X201767Y34213D01*
X201878Y34306D01*
X201971Y34398D01*
X202082Y34528D01*
X202193Y34657D01*
X202267Y34824D01*
Y34843D01*
X202304Y34917D01*
X202322Y35046D01*
X202359Y35231D01*
X202396Y35472D01*
X202415Y35620D01*
Y35787D01*
X202433Y35991D01*
X202452Y36194D01*
Y36416D01*
Y36676D01*
Y42045D01*
X203619D01*
Y43267D01*
X202452D01*
Y45564D01*
X200878Y46508D01*
D02*
G37*
G36*
X239300Y46786D02*
X237596D01*
Y39379D01*
Y39360D01*
Y39305D01*
Y39212D01*
Y39101D01*
X237578Y38972D01*
Y38805D01*
X237559Y38453D01*
X237522Y38046D01*
X237467Y37638D01*
X237393Y37250D01*
X237356Y37083D01*
X237300Y36916D01*
X237282Y36879D01*
X237245Y36787D01*
X237152Y36657D01*
X237041Y36472D01*
X236911Y36287D01*
X236726Y36083D01*
X236504Y35879D01*
X236245Y35713D01*
X236208Y35694D01*
X236115Y35639D01*
X235949Y35583D01*
X235726Y35509D01*
X235467Y35417D01*
X235134Y35361D01*
X234782Y35305D01*
X234393Y35287D01*
X234208D01*
X234097Y35305D01*
X233930D01*
X233764Y35324D01*
X233356Y35398D01*
X232912Y35491D01*
X232486Y35639D01*
X232078Y35842D01*
X231893Y35972D01*
X231727Y36120D01*
X231708Y36139D01*
X231690Y36157D01*
X231653Y36213D01*
X231597Y36287D01*
X231542Y36398D01*
X231467Y36509D01*
X231393Y36676D01*
X231319Y36842D01*
X231245Y37046D01*
X231190Y37287D01*
X231116Y37564D01*
X231060Y37861D01*
X231005Y38194D01*
X230968Y38546D01*
X230931Y38953D01*
Y39379D01*
Y46786D01*
X229227D01*
Y39064D01*
X229245Y38898D01*
Y38712D01*
X229264Y38490D01*
X229282Y38268D01*
X229338Y37768D01*
X229412Y37250D01*
X229523Y36750D01*
X229597Y36509D01*
X229671Y36287D01*
Y36268D01*
X229690Y36231D01*
X229727Y36176D01*
X229764Y36102D01*
X229875Y35898D01*
X230042Y35639D01*
X230264Y35342D01*
X230523Y35046D01*
X230856Y34731D01*
X231264Y34454D01*
X231282D01*
X231319Y34417D01*
X231375Y34398D01*
X231467Y34343D01*
X231579Y34287D01*
X231727Y34231D01*
X231875Y34176D01*
X232060Y34102D01*
X232264Y34028D01*
X232486Y33972D01*
X232727Y33917D01*
X233004Y33861D01*
X233282Y33824D01*
X233578Y33787D01*
X234245Y33750D01*
X234412D01*
X234541Y33768D01*
X234689D01*
X234874Y33787D01*
X235078Y33805D01*
X235282Y33824D01*
X235745Y33898D01*
X236245Y34009D01*
X236726Y34157D01*
X237189Y34361D01*
X237208D01*
X237245Y34398D01*
X237300Y34435D01*
X237374Y34472D01*
X237578Y34620D01*
X237819Y34824D01*
X238096Y35083D01*
X238356Y35380D01*
X238615Y35750D01*
X238819Y36157D01*
Y36176D01*
X238837Y36213D01*
X238856Y36287D01*
X238893Y36379D01*
X238930Y36490D01*
X238967Y36639D01*
X239022Y36805D01*
X239059Y37009D01*
X239096Y37231D01*
X239152Y37472D01*
X239189Y37731D01*
X239226Y38009D01*
X239263Y38324D01*
X239282Y38657D01*
X239300Y39009D01*
Y46786D01*
D02*
G37*
G36*
X214525D02*
X209488D01*
X209359Y46767D01*
X209210D01*
X208877Y46730D01*
X208507Y46693D01*
X208118Y46619D01*
X207729Y46526D01*
X207377Y46397D01*
X207359D01*
X207340Y46378D01*
X207229Y46323D01*
X207063Y46230D01*
X206877Y46101D01*
X206655Y45934D01*
X206415Y45730D01*
X206192Y45471D01*
X205989Y45193D01*
X205970Y45156D01*
X205915Y45045D01*
X205822Y44897D01*
X205729Y44675D01*
X205637Y44416D01*
X205544Y44138D01*
X205489Y43823D01*
X205470Y43508D01*
Y43471D01*
Y43379D01*
X205489Y43212D01*
X205526Y43008D01*
X205581Y42768D01*
X205674Y42508D01*
X205785Y42249D01*
X205933Y41971D01*
X205952Y41934D01*
X206007Y41860D01*
X206118Y41712D01*
X206266Y41564D01*
X206452Y41379D01*
X206674Y41175D01*
X206952Y40990D01*
X207266Y40805D01*
X207248D01*
X207211Y40786D01*
X207155Y40768D01*
X207081Y40731D01*
X206859Y40657D01*
X206600Y40527D01*
X206322Y40360D01*
X206007Y40157D01*
X205729Y39916D01*
X205470Y39620D01*
X205452Y39583D01*
X205378Y39472D01*
X205266Y39305D01*
X205155Y39083D01*
X205044Y38786D01*
X204933Y38472D01*
X204859Y38101D01*
X204841Y37694D01*
Y37546D01*
X204859Y37361D01*
X204896Y37139D01*
X204933Y36879D01*
X205007Y36602D01*
X205100Y36305D01*
X205229Y36009D01*
X205248Y35972D01*
X205303Y35879D01*
X205378Y35750D01*
X205489Y35565D01*
X205637Y35380D01*
X205785Y35176D01*
X205970Y34972D01*
X206174Y34805D01*
X206192Y34787D01*
X206266Y34731D01*
X206396Y34657D01*
X206563Y34583D01*
X206766Y34472D01*
X207007Y34361D01*
X207266Y34269D01*
X207581Y34176D01*
X207618D01*
X207729Y34139D01*
X207914Y34120D01*
X208155Y34083D01*
X208451Y34046D01*
X208803Y34009D01*
X209192Y33991D01*
X209636Y33972D01*
X214525D01*
Y46786D01*
D02*
G37*
G36*
X188528D02*
X178380D01*
Y45267D01*
X182602D01*
Y33972D01*
X184306D01*
Y45267D01*
X188528D01*
Y46786D01*
D02*
G37*
G36*
X177584D02*
X167437D01*
Y45267D01*
X171659D01*
Y33972D01*
X173362D01*
Y45267D01*
X177584D01*
Y46786D01*
D02*
G37*
G36*
X165752D02*
X164049D01*
Y35491D01*
X157734D01*
Y33972D01*
X165752D01*
Y46786D01*
D02*
G37*
G36*
X128589Y35768D02*
X126793D01*
Y33972D01*
X128589D01*
Y35768D01*
D02*
G37*
G36*
X193971Y43471D02*
X193786D01*
X193657Y43453D01*
X193490Y43434D01*
X193305Y43397D01*
X193101Y43360D01*
X192860Y43323D01*
X192360Y43156D01*
X192101Y43064D01*
X191842Y42934D01*
X191583Y42805D01*
X191324Y42619D01*
X191083Y42434D01*
X190842Y42212D01*
X190823Y42194D01*
X190786Y42157D01*
X190731Y42083D01*
X190657Y41990D01*
X190564Y41860D01*
X190453Y41694D01*
X190342Y41508D01*
X190231Y41305D01*
X190120Y41083D01*
X190009Y40805D01*
X189898Y40527D01*
X189805Y40212D01*
X189731Y39879D01*
X189676Y39527D01*
X189639Y39157D01*
X189620Y38749D01*
Y38453D01*
X189639Y38305D01*
X189657Y38120D01*
Y37935D01*
X189694Y37731D01*
X189750Y37268D01*
X189861Y36805D01*
X189990Y36342D01*
X190175Y35916D01*
Y35898D01*
X190194Y35879D01*
X190231Y35824D01*
X190268Y35750D01*
X190398Y35565D01*
X190564Y35342D01*
X190786Y35083D01*
X191064Y34824D01*
X191379Y34565D01*
X191749Y34324D01*
X191768D01*
X191786Y34306D01*
X191842Y34269D01*
X191935Y34231D01*
X192027Y34194D01*
X192138Y34157D01*
X192416Y34046D01*
X192731Y33954D01*
X193120Y33861D01*
X193527Y33787D01*
X193971Y33768D01*
X194156D01*
X194305Y33787D01*
X194471Y33805D01*
X194657Y33843D01*
X194879Y33880D01*
X195101Y33917D01*
X195601Y34065D01*
X195879Y34176D01*
X196138Y34287D01*
X196397Y34435D01*
X196656Y34602D01*
X196897Y34787D01*
X197138Y35009D01*
X197156Y35028D01*
X197193Y35065D01*
X197249Y35139D01*
X197323Y35250D01*
X197416Y35380D01*
X197508Y35528D01*
X197619Y35713D01*
X197730Y35935D01*
X197841Y36176D01*
X197952Y36453D01*
X198045Y36750D01*
X198138Y37064D01*
X198212Y37416D01*
X198267Y37787D01*
X198304Y38194D01*
X198323Y38620D01*
Y38731D01*
X198304Y38861D01*
Y39046D01*
X198286Y39249D01*
X198249Y39509D01*
X198212Y39768D01*
X198138Y40064D01*
X198064Y40360D01*
X197971Y40675D01*
X197860Y41009D01*
X197712Y41323D01*
X197564Y41620D01*
X197360Y41916D01*
X197156Y42194D01*
X196897Y42434D01*
X196879Y42453D01*
X196841Y42471D01*
X196767Y42527D01*
X196675Y42601D01*
X196564Y42675D01*
X196416Y42768D01*
X196267Y42860D01*
X196082Y42953D01*
X195879Y43045D01*
X195656Y43138D01*
X195156Y43305D01*
X194582Y43434D01*
X194286Y43453D01*
X193971Y43471D01*
D02*
G37*
G36*
X221987Y47008D02*
X221746D01*
X221617Y46989D01*
X221487D01*
X221135Y46952D01*
X220746Y46897D01*
X220339Y46804D01*
X219895Y46693D01*
X219487Y46545D01*
X219469D01*
X219432Y46526D01*
X219376Y46489D01*
X219302Y46452D01*
X219117Y46360D01*
X218876Y46193D01*
X218598Y46008D01*
X218321Y45767D01*
X218062Y45490D01*
X217821Y45175D01*
Y45156D01*
X217802Y45138D01*
X217765Y45082D01*
X217728Y45027D01*
X217636Y44841D01*
X217525Y44601D01*
X217395Y44304D01*
X217302Y43953D01*
X217210Y43582D01*
X217173Y43175D01*
X218802Y43045D01*
Y43064D01*
Y43101D01*
X218821Y43156D01*
X218839Y43249D01*
X218895Y43453D01*
X218969Y43730D01*
X219080Y44027D01*
X219247Y44323D01*
X219450Y44601D01*
X219709Y44860D01*
X219746Y44879D01*
X219839Y44953D01*
X220024Y45064D01*
X220265Y45175D01*
X220580Y45286D01*
X220950Y45397D01*
X221413Y45471D01*
X221931Y45490D01*
X222191D01*
X222302Y45471D01*
X222450Y45452D01*
X222783Y45416D01*
X223153Y45341D01*
X223524Y45249D01*
X223876Y45101D01*
X224024Y45008D01*
X224172Y44915D01*
X224209Y44897D01*
X224283Y44823D01*
X224394Y44693D01*
X224505Y44545D01*
X224635Y44342D01*
X224746Y44119D01*
X224820Y43860D01*
X224857Y43564D01*
Y43527D01*
Y43453D01*
X224839Y43323D01*
X224802Y43175D01*
X224746Y42990D01*
X224653Y42805D01*
X224542Y42619D01*
X224376Y42434D01*
X224357Y42416D01*
X224265Y42360D01*
X224191Y42305D01*
X224116Y42268D01*
X224005Y42212D01*
X223876Y42138D01*
X223709Y42083D01*
X223524Y42008D01*
X223320Y41934D01*
X223079Y41842D01*
X222820Y41768D01*
X222524Y41675D01*
X222191Y41601D01*
X221820Y41508D01*
X221802D01*
X221728Y41490D01*
X221617Y41471D01*
X221487Y41434D01*
X221320Y41397D01*
X221117Y41342D01*
X220913Y41286D01*
X220691Y41231D01*
X220209Y41101D01*
X219746Y40971D01*
X219524Y40897D01*
X219321Y40823D01*
X219135Y40768D01*
X218987Y40694D01*
X218969D01*
X218932Y40675D01*
X218876Y40638D01*
X218802Y40601D01*
X218598Y40490D01*
X218358Y40342D01*
X218080Y40138D01*
X217802Y39916D01*
X217543Y39657D01*
X217321Y39379D01*
X217302Y39342D01*
X217228Y39249D01*
X217154Y39083D01*
X217043Y38861D01*
X216950Y38601D01*
X216858Y38287D01*
X216802Y37935D01*
X216784Y37564D01*
Y37398D01*
X216821Y37194D01*
X216858Y36935D01*
X216932Y36639D01*
X217024Y36324D01*
X217173Y35991D01*
X217376Y35639D01*
Y35620D01*
X217395Y35602D01*
X217487Y35491D01*
X217617Y35324D01*
X217802Y35139D01*
X218043Y34917D01*
X218339Y34676D01*
X218673Y34454D01*
X219061Y34250D01*
X219080D01*
X219117Y34231D01*
X219172Y34213D01*
X219247Y34176D01*
X219358Y34139D01*
X219487Y34083D01*
X219783Y34009D01*
X220135Y33917D01*
X220561Y33824D01*
X221024Y33768D01*
X221524Y33750D01*
X221820D01*
X221968Y33768D01*
X222135D01*
X222320Y33787D01*
X222542Y33805D01*
X223005Y33880D01*
X223487Y33954D01*
X223968Y34083D01*
X224431Y34250D01*
X224450D01*
X224487Y34269D01*
X224542Y34306D01*
X224616Y34343D01*
X224839Y34454D01*
X225098Y34620D01*
X225394Y34843D01*
X225709Y35102D01*
X226005Y35417D01*
X226283Y35768D01*
Y35787D01*
X226320Y35824D01*
X226338Y35879D01*
X226394Y35954D01*
X226431Y36046D01*
X226486Y36157D01*
X226616Y36435D01*
X226746Y36787D01*
X226857Y37176D01*
X226931Y37620D01*
X226968Y38083D01*
X225375Y38231D01*
Y38212D01*
Y38194D01*
X225357Y38138D01*
Y38064D01*
X225320Y37898D01*
X225264Y37657D01*
X225190Y37416D01*
X225116Y37139D01*
X224987Y36879D01*
X224857Y36639D01*
X224839Y36620D01*
X224783Y36546D01*
X224690Y36416D01*
X224542Y36287D01*
X224357Y36120D01*
X224153Y35954D01*
X223876Y35787D01*
X223579Y35639D01*
X223561D01*
X223542Y35620D01*
X223487Y35602D01*
X223431Y35583D01*
X223246Y35528D01*
X223005Y35454D01*
X222709Y35380D01*
X222376Y35324D01*
X222006Y35287D01*
X221598Y35268D01*
X221432D01*
X221246Y35287D01*
X221024Y35305D01*
X220765Y35342D01*
X220469Y35380D01*
X220172Y35454D01*
X219895Y35546D01*
X219858Y35565D01*
X219765Y35602D01*
X219635Y35676D01*
X219469Y35750D01*
X219302Y35879D01*
X219117Y36009D01*
X218932Y36157D01*
X218784Y36342D01*
X218765Y36361D01*
X218728Y36435D01*
X218673Y36528D01*
X218598Y36676D01*
X218524Y36824D01*
X218469Y37009D01*
X218432Y37213D01*
X218413Y37435D01*
Y37453D01*
Y37546D01*
X218432Y37657D01*
X218450Y37805D01*
X218506Y37953D01*
X218561Y38138D01*
X218654Y38324D01*
X218784Y38490D01*
X218802Y38509D01*
X218858Y38564D01*
X218932Y38638D01*
X219061Y38749D01*
X219209Y38861D01*
X219413Y38990D01*
X219654Y39120D01*
X219932Y39231D01*
X219950Y39249D01*
X220043Y39268D01*
X220191Y39323D01*
X220284Y39342D01*
X220413Y39379D01*
X220543Y39435D01*
X220709Y39472D01*
X220895Y39527D01*
X221117Y39583D01*
X221339Y39638D01*
X221598Y39712D01*
X221894Y39786D01*
X222209Y39860D01*
X222228D01*
X222283Y39879D01*
X222376Y39897D01*
X222487Y39934D01*
X222635Y39972D01*
X222802Y40009D01*
X223172Y40120D01*
X223579Y40249D01*
X224005Y40379D01*
X224376Y40509D01*
X224542Y40583D01*
X224690Y40657D01*
X224709D01*
X224727Y40675D01*
X224839Y40749D01*
X225005Y40842D01*
X225190Y40990D01*
X225413Y41157D01*
X225635Y41360D01*
X225857Y41601D01*
X226042Y41860D01*
X226061Y41897D01*
X226116Y41990D01*
X226190Y42138D01*
X226264Y42323D01*
X226338Y42564D01*
X226413Y42842D01*
X226468Y43138D01*
X226486Y43453D01*
Y43471D01*
Y43490D01*
Y43545D01*
Y43619D01*
X226450Y43804D01*
X226413Y44045D01*
X226357Y44323D01*
X226264Y44638D01*
X226135Y44953D01*
X225949Y45267D01*
Y45286D01*
X225931Y45304D01*
X225838Y45416D01*
X225709Y45564D01*
X225542Y45749D01*
X225320Y45952D01*
X225042Y46175D01*
X224709Y46378D01*
X224339Y46564D01*
X224320D01*
X224283Y46582D01*
X224228Y46600D01*
X224153Y46638D01*
X224061Y46675D01*
X223931Y46712D01*
X223654Y46786D01*
X223302Y46860D01*
X222894Y46934D01*
X222468Y46989D01*
X221987Y47008D01*
D02*
G37*
G36*
X120312Y46841D02*
X120146D01*
X119942Y46823D01*
X119701Y46786D01*
X119424Y46730D01*
X119127Y46656D01*
X118813Y46564D01*
X118516Y46415D01*
X118498D01*
X118479Y46397D01*
X118387Y46341D01*
X118238Y46249D01*
X118053Y46119D01*
X117850Y45934D01*
X117627Y45730D01*
X117424Y45490D01*
X117220Y45212D01*
X117201Y45175D01*
X117128Y45082D01*
X117053Y44915D01*
X116924Y44675D01*
X116813Y44397D01*
X116665Y44082D01*
X116535Y43712D01*
X116424Y43305D01*
Y43286D01*
X116405Y43249D01*
X116387Y43193D01*
X116368Y43101D01*
X116350Y42990D01*
X116331Y42860D01*
X116294Y42694D01*
X116276Y42508D01*
X116239Y42305D01*
X116220Y42083D01*
X116202Y41823D01*
X116165Y41564D01*
X116146Y41268D01*
Y40971D01*
X116128Y40638D01*
Y39916D01*
X116146Y39712D01*
Y39490D01*
X116165Y39249D01*
X116183Y38990D01*
X116239Y38398D01*
X116331Y37787D01*
X116442Y37194D01*
X116516Y36916D01*
X116609Y36639D01*
Y36620D01*
X116628Y36583D01*
X116665Y36509D01*
X116702Y36416D01*
X116739Y36287D01*
X116813Y36157D01*
X116961Y35842D01*
X117146Y35509D01*
X117387Y35139D01*
X117664Y34805D01*
X117998Y34491D01*
X118016D01*
X118035Y34454D01*
X118090Y34417D01*
X118164Y34380D01*
X118257Y34324D01*
X118350Y34250D01*
X118627Y34120D01*
X118961Y33991D01*
X119349Y33861D01*
X119812Y33787D01*
X120312Y33750D01*
X120498D01*
X120627Y33768D01*
X120775Y33787D01*
X120960Y33824D01*
X121164Y33861D01*
X121386Y33917D01*
X121608Y33991D01*
X121849Y34065D01*
X122090Y34176D01*
X122331Y34306D01*
X122571Y34454D01*
X122812Y34639D01*
X123034Y34843D01*
X123238Y35065D01*
X123257Y35083D01*
X123294Y35139D01*
X123349Y35231D01*
X123442Y35380D01*
X123534Y35546D01*
X123627Y35768D01*
X123756Y36028D01*
X123868Y36324D01*
X123979Y36657D01*
X124090Y37046D01*
X124201Y37472D01*
X124293Y37953D01*
X124386Y38472D01*
X124441Y39027D01*
X124479Y39638D01*
X124497Y40286D01*
Y40657D01*
X124479Y40860D01*
Y41083D01*
X124460Y41323D01*
X124441Y41601D01*
X124386Y42175D01*
X124293Y42786D01*
X124182Y43397D01*
X124108Y43675D01*
X124034Y43953D01*
Y43971D01*
X124016Y44008D01*
X123979Y44082D01*
X123942Y44175D01*
X123905Y44304D01*
X123830Y44434D01*
X123682Y44749D01*
X123497Y45082D01*
X123257Y45434D01*
X122979Y45786D01*
X122645Y46082D01*
X122627D01*
X122608Y46119D01*
X122553Y46156D01*
X122479Y46193D01*
X122386Y46267D01*
X122275Y46323D01*
X121997Y46471D01*
X121664Y46600D01*
X121275Y46730D01*
X120812Y46804D01*
X120312Y46841D01*
D02*
G37*
G36*
X228727Y30002D02*
X227153D01*
Y28206D01*
X228727D01*
Y30002D01*
D02*
G37*
G36*
X199878D02*
X198304D01*
Y25429D01*
X198286Y25447D01*
X198267Y25484D01*
X198212Y25540D01*
X198119Y25632D01*
X198027Y25725D01*
X197915Y25836D01*
X197767Y25947D01*
X197619Y26058D01*
X197249Y26299D01*
X196823Y26484D01*
X196582Y26577D01*
X196323Y26632D01*
X196045Y26669D01*
X195767Y26688D01*
X195619D01*
X195453Y26669D01*
X195249Y26651D01*
X195008Y26595D01*
X194730Y26540D01*
X194434Y26447D01*
X194156Y26336D01*
X194119Y26318D01*
X194027Y26281D01*
X193879Y26188D01*
X193712Y26077D01*
X193508Y25947D01*
X193305Y25781D01*
X193083Y25577D01*
X192897Y25355D01*
X192879Y25336D01*
X192823Y25244D01*
X192731Y25114D01*
X192620Y24947D01*
X192490Y24725D01*
X192360Y24466D01*
X192231Y24170D01*
X192120Y23855D01*
Y23836D01*
X192101Y23818D01*
X192083Y23762D01*
X192064Y23707D01*
X192027Y23521D01*
X191972Y23281D01*
X191916Y23003D01*
X191861Y22688D01*
X191842Y22336D01*
X191823Y21966D01*
Y21744D01*
X191842Y21577D01*
X191861Y21374D01*
X191879Y21151D01*
X191916Y20892D01*
X191972Y20614D01*
X192120Y20022D01*
X192212Y19707D01*
X192323Y19411D01*
X192453Y19096D01*
X192620Y18818D01*
X192805Y18541D01*
X193008Y18281D01*
X193027Y18263D01*
X193064Y18226D01*
X193120Y18170D01*
X193212Y18078D01*
X193342Y17985D01*
X193471Y17874D01*
X193620Y17763D01*
X193805Y17633D01*
X194008Y17522D01*
X194212Y17392D01*
X194712Y17189D01*
X194971Y17096D01*
X195249Y17041D01*
X195545Y17004D01*
X195842Y16985D01*
X195916D01*
X196008Y17004D01*
X196119D01*
X196249Y17022D01*
X196416Y17059D01*
X196786Y17152D01*
X196990Y17226D01*
X197193Y17319D01*
X197416Y17430D01*
X197619Y17559D01*
X197841Y17726D01*
X198045Y17911D01*
X198230Y18115D01*
X198415Y18355D01*
Y17189D01*
X199878D01*
Y30002D01*
D02*
G37*
G36*
X219765D02*
X218191D01*
Y25410D01*
X218173Y25429D01*
X218136Y25466D01*
X218080Y25521D01*
X217987Y25614D01*
X217895Y25707D01*
X217765Y25818D01*
X217598Y25929D01*
X217432Y26058D01*
X217247Y26169D01*
X217043Y26281D01*
X216562Y26484D01*
X216302Y26577D01*
X216025Y26632D01*
X215728Y26669D01*
X215432Y26688D01*
X215266D01*
X215062Y26669D01*
X214821Y26632D01*
X214543Y26595D01*
X214247Y26521D01*
X213951Y26410D01*
X213654Y26281D01*
X213617Y26262D01*
X213525Y26207D01*
X213395Y26114D01*
X213229Y25984D01*
X213062Y25818D01*
X212877Y25632D01*
X212710Y25410D01*
X212562Y25151D01*
X212544Y25114D01*
X212507Y25021D01*
X212451Y24855D01*
X212395Y24614D01*
X212340Y24318D01*
X212284Y23966D01*
X212247Y23540D01*
X212229Y23059D01*
Y17189D01*
X213803D01*
Y23077D01*
Y23096D01*
Y23133D01*
Y23188D01*
Y23262D01*
X213821Y23466D01*
X213858Y23725D01*
X213932Y24003D01*
X214025Y24281D01*
X214154Y24558D01*
X214321Y24781D01*
X214340Y24799D01*
X214414Y24873D01*
X214525Y24966D01*
X214691Y25058D01*
X214895Y25169D01*
X215136Y25244D01*
X215432Y25318D01*
X215765Y25336D01*
X215877D01*
X216006Y25318D01*
X216191Y25299D01*
X216376Y25244D01*
X216599Y25188D01*
X216821Y25096D01*
X217062Y24966D01*
X217080Y24947D01*
X217154Y24892D01*
X217265Y24818D01*
X217395Y24707D01*
X217543Y24558D01*
X217691Y24392D01*
X217821Y24188D01*
X217932Y23966D01*
X217950Y23929D01*
X217969Y23855D01*
X218006Y23707D01*
X218062Y23521D01*
X218117Y23281D01*
X218154Y22985D01*
X218173Y22651D01*
X218191Y22262D01*
Y17189D01*
X219765D01*
Y30002D01*
D02*
G37*
G36*
X235282Y26688D02*
X235115D01*
X235004Y26669D01*
X234874Y26651D01*
X234708Y26614D01*
X234523Y26577D01*
X234319Y26521D01*
X234115Y26447D01*
X233893Y26355D01*
X233671Y26244D01*
X233430Y26114D01*
X233208Y25966D01*
X232986Y25781D01*
X232764Y25577D01*
X232560Y25336D01*
Y26484D01*
X231116D01*
Y18096D01*
X231134Y17930D01*
Y17726D01*
X231153Y17504D01*
X231171Y17263D01*
X231227Y16763D01*
X231301Y16244D01*
X231356Y16004D01*
X231412Y15782D01*
X231486Y15578D01*
X231560Y15393D01*
Y15374D01*
X231579Y15356D01*
X231653Y15245D01*
X231745Y15078D01*
X231893Y14874D01*
X232097Y14652D01*
X232338Y14411D01*
X232634Y14171D01*
X232967Y13967D01*
X232986D01*
X233004Y13949D01*
X233060Y13911D01*
X233134Y13893D01*
X233227Y13837D01*
X233338Y13800D01*
X233615Y13708D01*
X233949Y13597D01*
X234356Y13523D01*
X234819Y13448D01*
X235319Y13430D01*
X235486D01*
X235597Y13448D01*
X235745D01*
X235893Y13467D01*
X236078Y13485D01*
X236282Y13523D01*
X236708Y13615D01*
X237152Y13745D01*
X237596Y13930D01*
X238004Y14189D01*
X238022Y14208D01*
X238041Y14226D01*
X238171Y14337D01*
X238319Y14504D01*
X238504Y14745D01*
X238689Y15059D01*
X238856Y15448D01*
X238911Y15670D01*
X238948Y15911D01*
X238985Y16152D01*
Y16430D01*
X237448Y16226D01*
Y16189D01*
X237430Y16115D01*
X237393Y15985D01*
X237356Y15819D01*
X237282Y15652D01*
X237189Y15485D01*
X237078Y15319D01*
X236930Y15189D01*
X236893Y15171D01*
X236819Y15115D01*
X236689Y15041D01*
X236504Y14967D01*
X236282Y14874D01*
X236004Y14800D01*
X235671Y14745D01*
X235319Y14726D01*
X235134D01*
X234949Y14745D01*
X234689Y14782D01*
X234430Y14837D01*
X234152Y14911D01*
X233875Y15022D01*
X233634Y15171D01*
X233615Y15189D01*
X233541Y15245D01*
X233430Y15356D01*
X233301Y15485D01*
X233171Y15670D01*
X233041Y15874D01*
X232912Y16115D01*
X232819Y16393D01*
Y16411D01*
X232801Y16485D01*
X232782Y16633D01*
X232764Y16818D01*
X232745Y16948D01*
Y17096D01*
X232727Y17263D01*
Y17448D01*
Y17652D01*
X232708Y17893D01*
Y18133D01*
Y18411D01*
X232727Y18392D01*
X232764Y18355D01*
X232819Y18300D01*
X232893Y18226D01*
X232986Y18133D01*
X233116Y18022D01*
X233264Y17911D01*
X233412Y17800D01*
X233801Y17578D01*
X234226Y17374D01*
X234467Y17300D01*
X234726Y17244D01*
X235004Y17207D01*
X235282Y17189D01*
X235375D01*
X235467Y17207D01*
X235597D01*
X235763Y17226D01*
X235949Y17263D01*
X236152Y17300D01*
X236374Y17356D01*
X236615Y17430D01*
X236856Y17522D01*
X237097Y17633D01*
X237356Y17763D01*
X237596Y17930D01*
X237837Y18115D01*
X238059Y18318D01*
X238263Y18559D01*
X238282Y18578D01*
X238300Y18615D01*
X238356Y18707D01*
X238430Y18800D01*
X238504Y18948D01*
X238596Y19096D01*
X238689Y19281D01*
X238782Y19503D01*
X238874Y19726D01*
X238967Y19985D01*
X239059Y20244D01*
X239133Y20540D01*
X239263Y21170D01*
X239282Y21522D01*
X239300Y21874D01*
Y22096D01*
X239282Y22225D01*
Y22355D01*
X239244Y22688D01*
X239189Y23059D01*
X239096Y23466D01*
X238985Y23892D01*
X238819Y24318D01*
Y24336D01*
X238800Y24373D01*
X238763Y24429D01*
X238726Y24503D01*
X238615Y24707D01*
X238467Y24966D01*
X238263Y25244D01*
X238022Y25521D01*
X237745Y25818D01*
X237430Y26058D01*
X237411D01*
X237393Y26077D01*
X237337Y26114D01*
X237263Y26151D01*
X237078Y26262D01*
X236819Y26373D01*
X236504Y26484D01*
X236134Y26595D01*
X235726Y26669D01*
X235282Y26688D01*
D02*
G37*
G36*
X161771D02*
X161604D01*
X161401Y26669D01*
X161178Y26632D01*
X160901Y26577D01*
X160623Y26503D01*
X160345Y26392D01*
X160086Y26244D01*
X160049Y26225D01*
X159975Y26169D01*
X159864Y26077D01*
X159716Y25929D01*
X159567Y25762D01*
X159401Y25558D01*
X159253Y25318D01*
X159142Y25040D01*
X159123Y25058D01*
X159086Y25114D01*
X159031Y25188D01*
X158938Y25299D01*
X158827Y25429D01*
X158697Y25558D01*
X158549Y25707D01*
X158364Y25873D01*
X158160Y26021D01*
X157957Y26169D01*
X157716Y26299D01*
X157457Y26429D01*
X157179Y26540D01*
X156883Y26614D01*
X156586Y26669D01*
X156253Y26688D01*
X156123D01*
X156031Y26669D01*
X155901D01*
X155772Y26651D01*
X155457Y26595D01*
X155124Y26503D01*
X154772Y26355D01*
X154420Y26169D01*
X154124Y25910D01*
X154087Y25873D01*
X154012Y25762D01*
X153883Y25595D01*
X153827Y25466D01*
X153753Y25336D01*
X153679Y25169D01*
X153624Y25003D01*
X153550Y24818D01*
X153494Y24595D01*
X153457Y24373D01*
X153420Y24114D01*
X153383Y23855D01*
Y17189D01*
X154957D01*
Y23022D01*
Y23040D01*
Y23059D01*
Y23170D01*
Y23336D01*
X154975Y23540D01*
X154994Y23762D01*
X155012Y23984D01*
X155049Y24207D01*
X155105Y24373D01*
Y24392D01*
X155142Y24447D01*
X155179Y24521D01*
X155235Y24614D01*
X155309Y24725D01*
X155401Y24836D01*
X155512Y24947D01*
X155660Y25058D01*
X155679Y25077D01*
X155735Y25096D01*
X155809Y25133D01*
X155938Y25188D01*
X156068Y25244D01*
X156235Y25281D01*
X156401Y25299D01*
X156605Y25318D01*
X156698D01*
X156771Y25299D01*
X156957Y25281D01*
X157179Y25244D01*
X157438Y25151D01*
X157716Y25040D01*
X157994Y24873D01*
X158253Y24651D01*
X158271Y24614D01*
X158345Y24521D01*
X158456Y24373D01*
X158568Y24151D01*
X158697Y23855D01*
X158790Y23503D01*
X158864Y23077D01*
X158901Y22577D01*
Y17189D01*
X160475D01*
Y23207D01*
Y23225D01*
Y23262D01*
Y23299D01*
Y23373D01*
X160493Y23577D01*
X160530Y23799D01*
X160567Y24058D01*
X160641Y24318D01*
X160734Y24558D01*
X160864Y24781D01*
X160882Y24799D01*
X160938Y24873D01*
X161030Y24947D01*
X161160Y25058D01*
X161327Y25151D01*
X161549Y25244D01*
X161808Y25299D01*
X162123Y25318D01*
X162234D01*
X162363Y25299D01*
X162512Y25281D01*
X162697Y25225D01*
X162919Y25169D01*
X163123Y25077D01*
X163345Y24966D01*
X163363Y24947D01*
X163438Y24892D01*
X163530Y24818D01*
X163660Y24707D01*
X163789Y24558D01*
X163919Y24373D01*
X164049Y24170D01*
X164160Y23929D01*
X164178Y23892D01*
X164197Y23799D01*
X164234Y23651D01*
X164289Y23447D01*
X164345Y23170D01*
X164382Y22836D01*
X164400Y22448D01*
X164419Y22003D01*
Y17189D01*
X165993D01*
Y26484D01*
X164585D01*
Y25151D01*
X164567Y25188D01*
X164512Y25262D01*
X164400Y25392D01*
X164271Y25540D01*
X164104Y25725D01*
X163900Y25910D01*
X163678Y26095D01*
X163419Y26262D01*
X163382Y26281D01*
X163289Y26336D01*
X163141Y26392D01*
X162938Y26484D01*
X162697Y26558D01*
X162419Y26614D01*
X162104Y26669D01*
X161771Y26688D01*
D02*
G37*
G36*
X59374Y29836D02*
X53004D01*
Y28336D01*
X58134D01*
X58819Y24873D01*
X58800Y24892D01*
X58763Y24910D01*
X58708Y24947D01*
X58615Y25003D01*
X58504Y25058D01*
X58374Y25133D01*
X58078Y25281D01*
X57708Y25429D01*
X57300Y25558D01*
X56856Y25651D01*
X56634Y25688D01*
X56226D01*
X56115Y25670D01*
X55967Y25651D01*
X55800Y25632D01*
X55615Y25595D01*
X55412Y25540D01*
X54967Y25410D01*
X54727Y25318D01*
X54486Y25188D01*
X54245Y25058D01*
X54004Y24910D01*
X53782Y24725D01*
X53560Y24521D01*
X53541Y24503D01*
X53504Y24466D01*
X53449Y24410D01*
X53375Y24318D01*
X53282Y24188D01*
X53190Y24058D01*
X53079Y23892D01*
X52968Y23707D01*
X52875Y23503D01*
X52764Y23281D01*
X52671Y23022D01*
X52579Y22762D01*
X52505Y22485D01*
X52449Y22170D01*
X52412Y21855D01*
X52393Y21522D01*
Y21355D01*
X52412Y21226D01*
X52431Y21077D01*
X52449Y20911D01*
X52486Y20707D01*
X52523Y20503D01*
X52634Y20022D01*
X52819Y19522D01*
X52930Y19263D01*
X53079Y19022D01*
X53227Y18763D01*
X53412Y18522D01*
X53430Y18504D01*
X53467Y18448D01*
X53541Y18374D01*
X53634Y18281D01*
X53764Y18170D01*
X53912Y18022D01*
X54097Y17893D01*
X54301Y17744D01*
X54523Y17596D01*
X54782Y17467D01*
X55060Y17337D01*
X55356Y17207D01*
X55671Y17115D01*
X56023Y17041D01*
X56393Y16985D01*
X56782Y16967D01*
X56948D01*
X57078Y16985D01*
X57226Y17004D01*
X57393Y17022D01*
X57597Y17041D01*
X57800Y17096D01*
X58263Y17207D01*
X58726Y17374D01*
X58967Y17485D01*
X59208Y17615D01*
X59430Y17763D01*
X59652Y17930D01*
X59671Y17948D01*
X59707Y17967D01*
X59745Y18041D01*
X59819Y18115D01*
X59911Y18207D01*
X60004Y18318D01*
X60115Y18467D01*
X60207Y18633D01*
X60318Y18800D01*
X60430Y19003D01*
X60633Y19448D01*
X60800Y19966D01*
X60855Y20244D01*
X60893Y20540D01*
X59245Y20670D01*
Y20652D01*
Y20614D01*
X59226Y20559D01*
X59208Y20466D01*
X59152Y20263D01*
X59078Y19985D01*
X58967Y19707D01*
X58819Y19392D01*
X58633Y19115D01*
X58411Y18855D01*
X58374Y18837D01*
X58300Y18763D01*
X58152Y18670D01*
X57948Y18559D01*
X57726Y18448D01*
X57449Y18355D01*
X57134Y18281D01*
X56782Y18263D01*
X56671D01*
X56597Y18281D01*
X56375Y18300D01*
X56115Y18374D01*
X55800Y18467D01*
X55486Y18615D01*
X55152Y18837D01*
X55004Y18966D01*
X54856Y19115D01*
X54838Y19133D01*
X54819Y19152D01*
X54782Y19207D01*
X54727Y19263D01*
X54597Y19466D01*
X54449Y19726D01*
X54319Y20040D01*
X54190Y20429D01*
X54097Y20892D01*
X54060Y21133D01*
Y21392D01*
Y21411D01*
Y21448D01*
Y21522D01*
X54078Y21614D01*
Y21725D01*
X54097Y21855D01*
X54152Y22151D01*
X54245Y22503D01*
X54375Y22855D01*
X54560Y23188D01*
X54819Y23503D01*
Y23521D01*
X54856Y23540D01*
X54949Y23633D01*
X55115Y23762D01*
X55338Y23910D01*
X55634Y24040D01*
X55967Y24170D01*
X56356Y24262D01*
X56578Y24299D01*
X56930D01*
X57078Y24281D01*
X57263Y24262D01*
X57485Y24207D01*
X57708Y24151D01*
X57948Y24058D01*
X58189Y23947D01*
X58208Y23929D01*
X58282Y23892D01*
X58393Y23799D01*
X58541Y23707D01*
X58689Y23577D01*
X58837Y23410D01*
X59004Y23244D01*
X59134Y23040D01*
X60615Y23244D01*
X59374Y29836D01*
D02*
G37*
G36*
X142143Y26688D02*
X141940D01*
X141736Y26669D01*
X141458Y26651D01*
X141144Y26614D01*
X140829Y26558D01*
X140514Y26484D01*
X140218Y26392D01*
X140181Y26373D01*
X140088Y26336D01*
X139958Y26281D01*
X139792Y26207D01*
X139607Y26095D01*
X139422Y25984D01*
X139255Y25836D01*
X139107Y25688D01*
X139088Y25670D01*
X139051Y25614D01*
X138996Y25521D01*
X138921Y25410D01*
X138829Y25244D01*
X138755Y25077D01*
X138681Y24873D01*
X138625Y24632D01*
Y24614D01*
X138607Y24558D01*
X138588Y24447D01*
X138570Y24299D01*
Y24096D01*
X138551Y23855D01*
X138533Y23540D01*
Y23188D01*
Y21077D01*
Y21059D01*
Y20985D01*
Y20874D01*
Y20726D01*
Y20559D01*
Y20355D01*
X138514Y19911D01*
Y19448D01*
X138496Y18985D01*
X138477Y18781D01*
Y18596D01*
X138459Y18429D01*
X138440Y18300D01*
Y18281D01*
X138422Y18207D01*
X138403Y18096D01*
X138348Y17948D01*
X138310Y17781D01*
X138236Y17596D01*
X138144Y17392D01*
X138051Y17189D01*
X139699D01*
X139718Y17207D01*
X139736Y17281D01*
X139773Y17374D01*
X139829Y17522D01*
X139884Y17689D01*
X139921Y17893D01*
X139958Y18115D01*
X139995Y18355D01*
X140014D01*
X140033Y18318D01*
X140144Y18226D01*
X140310Y18096D01*
X140533Y17930D01*
X140810Y17763D01*
X141088Y17578D01*
X141384Y17411D01*
X141699Y17281D01*
X141736Y17263D01*
X141847Y17244D01*
X142014Y17189D01*
X142218Y17133D01*
X142477Y17078D01*
X142773Y17041D01*
X143106Y17004D01*
X143440Y16985D01*
X143588D01*
X143699Y17004D01*
X143828D01*
X143976Y17022D01*
X144310Y17078D01*
X144680Y17170D01*
X145087Y17300D01*
X145458Y17485D01*
X145791Y17726D01*
X145828Y17763D01*
X145921Y17855D01*
X146050Y18022D01*
X146199Y18244D01*
X146347Y18522D01*
X146476Y18837D01*
X146569Y19226D01*
X146587Y19411D01*
X146606Y19633D01*
Y19744D01*
X146587Y19874D01*
X146569Y20040D01*
X146532Y20244D01*
X146476Y20448D01*
X146402Y20670D01*
X146310Y20874D01*
X146291Y20892D01*
X146254Y20966D01*
X146180Y21077D01*
X146087Y21207D01*
X145976Y21355D01*
X145828Y21503D01*
X145680Y21651D01*
X145495Y21781D01*
X145476Y21799D01*
X145402Y21837D01*
X145310Y21911D01*
X145162Y21985D01*
X144995Y22059D01*
X144791Y22151D01*
X144588Y22225D01*
X144347Y22299D01*
X144328D01*
X144254Y22318D01*
X144143Y22355D01*
X143995Y22373D01*
X143810Y22411D01*
X143569Y22448D01*
X143291Y22503D01*
X142958Y22540D01*
X142940D01*
X142866Y22559D01*
X142773D01*
X142643Y22577D01*
X142495Y22596D01*
X142310Y22633D01*
X142106Y22651D01*
X141884Y22688D01*
X141440Y22781D01*
X140958Y22873D01*
X140533Y22985D01*
X140329Y23040D01*
X140144Y23096D01*
Y23114D01*
Y23151D01*
X140125Y23262D01*
Y23392D01*
Y23466D01*
Y23503D01*
Y23521D01*
Y23540D01*
Y23651D01*
X140144Y23836D01*
X140181Y24040D01*
X140236Y24262D01*
X140329Y24484D01*
X140440Y24688D01*
X140588Y24855D01*
X140606Y24873D01*
X140699Y24947D01*
X140847Y25021D01*
X141032Y25133D01*
X141292Y25225D01*
X141588Y25318D01*
X141958Y25373D01*
X142384Y25392D01*
X142569D01*
X142754Y25373D01*
X143014Y25336D01*
X143273Y25299D01*
X143551Y25225D01*
X143810Y25133D01*
X144032Y25003D01*
X144051Y24984D01*
X144125Y24929D01*
X144217Y24836D01*
X144328Y24688D01*
X144439Y24503D01*
X144569Y24262D01*
X144680Y23966D01*
X144791Y23633D01*
X146328Y23836D01*
Y23855D01*
X146310Y23873D01*
Y23929D01*
X146291Y24003D01*
X146236Y24170D01*
X146161Y24410D01*
X146069Y24651D01*
X145958Y24910D01*
X145810Y25169D01*
X145643Y25410D01*
X145625Y25429D01*
X145550Y25503D01*
X145439Y25614D01*
X145291Y25762D01*
X145087Y25910D01*
X144847Y26058D01*
X144569Y26225D01*
X144254Y26355D01*
X144236D01*
X144217Y26373D01*
X144162Y26392D01*
X144088Y26410D01*
X143903Y26466D01*
X143643Y26521D01*
X143347Y26577D01*
X142977Y26632D01*
X142588Y26669D01*
X142143Y26688D01*
D02*
G37*
G36*
X135977Y30002D02*
X134274D01*
Y23633D01*
X127941Y30002D01*
X125627D01*
X130996Y24799D01*
X125386Y17189D01*
X127626D01*
X132182Y23651D01*
X134274Y21633D01*
Y17189D01*
X135977D01*
Y30002D01*
D02*
G37*
G36*
X120238Y26688D02*
X120035D01*
X119831Y26669D01*
X119553Y26651D01*
X119238Y26614D01*
X118924Y26558D01*
X118609Y26484D01*
X118313Y26392D01*
X118275Y26373D01*
X118183Y26336D01*
X118053Y26281D01*
X117887Y26207D01*
X117702Y26095D01*
X117516Y25984D01*
X117350Y25836D01*
X117201Y25688D01*
X117183Y25670D01*
X117146Y25614D01*
X117090Y25521D01*
X117016Y25410D01*
X116924Y25244D01*
X116850Y25077D01*
X116776Y24873D01*
X116720Y24632D01*
Y24614D01*
X116702Y24558D01*
X116683Y24447D01*
X116665Y24299D01*
Y24096D01*
X116646Y23855D01*
X116628Y23540D01*
Y23188D01*
Y21077D01*
Y21059D01*
Y20985D01*
Y20874D01*
Y20726D01*
Y20559D01*
Y20355D01*
X116609Y19911D01*
Y19448D01*
X116590Y18985D01*
X116572Y18781D01*
Y18596D01*
X116553Y18429D01*
X116535Y18300D01*
Y18281D01*
X116516Y18207D01*
X116498Y18096D01*
X116442Y17948D01*
X116405Y17781D01*
X116331Y17596D01*
X116239Y17392D01*
X116146Y17189D01*
X117794D01*
X117813Y17207D01*
X117831Y17281D01*
X117868Y17374D01*
X117924Y17522D01*
X117979Y17689D01*
X118016Y17893D01*
X118053Y18115D01*
X118090Y18355D01*
X118109D01*
X118127Y18318D01*
X118238Y18226D01*
X118405Y18096D01*
X118627Y17930D01*
X118905Y17763D01*
X119183Y17578D01*
X119479Y17411D01*
X119794Y17281D01*
X119831Y17263D01*
X119942Y17244D01*
X120109Y17189D01*
X120312Y17133D01*
X120572Y17078D01*
X120868Y17041D01*
X121201Y17004D01*
X121534Y16985D01*
X121683D01*
X121794Y17004D01*
X121923D01*
X122071Y17022D01*
X122405Y17078D01*
X122775Y17170D01*
X123182Y17300D01*
X123553Y17485D01*
X123886Y17726D01*
X123923Y17763D01*
X124016Y17855D01*
X124145Y18022D01*
X124293Y18244D01*
X124441Y18522D01*
X124571Y18837D01*
X124664Y19226D01*
X124682Y19411D01*
X124701Y19633D01*
Y19744D01*
X124682Y19874D01*
X124664Y20040D01*
X124627Y20244D01*
X124571Y20448D01*
X124497Y20670D01*
X124404Y20874D01*
X124386Y20892D01*
X124349Y20966D01*
X124275Y21077D01*
X124182Y21207D01*
X124071Y21355D01*
X123923Y21503D01*
X123775Y21651D01*
X123590Y21781D01*
X123571Y21799D01*
X123497Y21837D01*
X123405Y21911D01*
X123257Y21985D01*
X123090Y22059D01*
X122886Y22151D01*
X122683Y22225D01*
X122442Y22299D01*
X122423D01*
X122349Y22318D01*
X122238Y22355D01*
X122090Y22373D01*
X121905Y22411D01*
X121664Y22448D01*
X121386Y22503D01*
X121053Y22540D01*
X121034D01*
X120960Y22559D01*
X120868D01*
X120738Y22577D01*
X120590Y22596D01*
X120405Y22633D01*
X120201Y22651D01*
X119979Y22688D01*
X119535Y22781D01*
X119053Y22873D01*
X118627Y22985D01*
X118424Y23040D01*
X118238Y23096D01*
Y23114D01*
Y23151D01*
X118220Y23262D01*
Y23392D01*
Y23466D01*
Y23503D01*
Y23521D01*
Y23540D01*
Y23651D01*
X118238Y23836D01*
X118275Y24040D01*
X118331Y24262D01*
X118424Y24484D01*
X118535Y24688D01*
X118683Y24855D01*
X118701Y24873D01*
X118794Y24947D01*
X118942Y25021D01*
X119127Y25133D01*
X119387Y25225D01*
X119683Y25318D01*
X120053Y25373D01*
X120479Y25392D01*
X120664D01*
X120849Y25373D01*
X121109Y25336D01*
X121368Y25299D01*
X121645Y25225D01*
X121905Y25133D01*
X122127Y25003D01*
X122146Y24984D01*
X122219Y24929D01*
X122312Y24836D01*
X122423Y24688D01*
X122534Y24503D01*
X122664Y24262D01*
X122775Y23966D01*
X122886Y23633D01*
X124423Y23836D01*
Y23855D01*
X124404Y23873D01*
Y23929D01*
X124386Y24003D01*
X124330Y24170D01*
X124256Y24410D01*
X124164Y24651D01*
X124053Y24910D01*
X123905Y25169D01*
X123738Y25410D01*
X123719Y25429D01*
X123645Y25503D01*
X123534Y25614D01*
X123386Y25762D01*
X123182Y25910D01*
X122942Y26058D01*
X122664Y26225D01*
X122349Y26355D01*
X122331D01*
X122312Y26373D01*
X122257Y26392D01*
X122183Y26410D01*
X121997Y26466D01*
X121738Y26521D01*
X121442Y26577D01*
X121072Y26632D01*
X120683Y26669D01*
X120238Y26688D01*
D02*
G37*
G36*
X76446D02*
X76243D01*
X76039Y26669D01*
X75761Y26651D01*
X75447Y26614D01*
X75132Y26558D01*
X74817Y26484D01*
X74521Y26392D01*
X74484Y26373D01*
X74391Y26336D01*
X74261Y26281D01*
X74095Y26207D01*
X73910Y26095D01*
X73725Y25984D01*
X73558Y25836D01*
X73410Y25688D01*
X73391Y25670D01*
X73354Y25614D01*
X73299Y25521D01*
X73225Y25410D01*
X73132Y25244D01*
X73058Y25077D01*
X72984Y24873D01*
X72928Y24632D01*
Y24614D01*
X72910Y24558D01*
X72891Y24447D01*
X72873Y24299D01*
Y24096D01*
X72854Y23855D01*
X72836Y23540D01*
Y23188D01*
Y21077D01*
Y21059D01*
Y20985D01*
Y20874D01*
Y20726D01*
Y20559D01*
Y20355D01*
X72817Y19911D01*
Y19448D01*
X72799Y18985D01*
X72780Y18781D01*
Y18596D01*
X72762Y18429D01*
X72743Y18300D01*
Y18281D01*
X72725Y18207D01*
X72706Y18096D01*
X72651Y17948D01*
X72614Y17781D01*
X72540Y17596D01*
X72447Y17392D01*
X72354Y17189D01*
X74002D01*
X74021Y17207D01*
X74039Y17281D01*
X74076Y17374D01*
X74132Y17522D01*
X74187Y17689D01*
X74225Y17893D01*
X74261Y18115D01*
X74299Y18355D01*
X74317D01*
X74336Y18318D01*
X74447Y18226D01*
X74613Y18096D01*
X74836Y17930D01*
X75113Y17763D01*
X75391Y17578D01*
X75687Y17411D01*
X76002Y17281D01*
X76039Y17263D01*
X76150Y17244D01*
X76317Y17189D01*
X76521Y17133D01*
X76780Y17078D01*
X77076Y17041D01*
X77409Y17004D01*
X77743Y16985D01*
X77891D01*
X78002Y17004D01*
X78131D01*
X78280Y17022D01*
X78613Y17078D01*
X78983Y17170D01*
X79391Y17300D01*
X79761Y17485D01*
X80094Y17726D01*
X80131Y17763D01*
X80224Y17855D01*
X80353Y18022D01*
X80502Y18244D01*
X80650Y18522D01*
X80779Y18837D01*
X80872Y19226D01*
X80891Y19411D01*
X80909Y19633D01*
Y19744D01*
X80891Y19874D01*
X80872Y20040D01*
X80835Y20244D01*
X80779Y20448D01*
X80705Y20670D01*
X80613Y20874D01*
X80594Y20892D01*
X80557Y20966D01*
X80483Y21077D01*
X80391Y21207D01*
X80279Y21355D01*
X80131Y21503D01*
X79983Y21651D01*
X79798Y21781D01*
X79780Y21799D01*
X79705Y21837D01*
X79613Y21911D01*
X79465Y21985D01*
X79298Y22059D01*
X79094Y22151D01*
X78891Y22225D01*
X78650Y22299D01*
X78632D01*
X78557Y22318D01*
X78446Y22355D01*
X78298Y22373D01*
X78113Y22411D01*
X77872Y22448D01*
X77594Y22503D01*
X77261Y22540D01*
X77243D01*
X77169Y22559D01*
X77076D01*
X76947Y22577D01*
X76798Y22596D01*
X76613Y22633D01*
X76410Y22651D01*
X76187Y22688D01*
X75743Y22781D01*
X75261Y22873D01*
X74836Y22985D01*
X74632Y23040D01*
X74447Y23096D01*
Y23114D01*
Y23151D01*
X74428Y23262D01*
Y23392D01*
Y23466D01*
Y23503D01*
Y23521D01*
Y23540D01*
Y23651D01*
X74447Y23836D01*
X74484Y24040D01*
X74539Y24262D01*
X74632Y24484D01*
X74743Y24688D01*
X74891Y24855D01*
X74910Y24873D01*
X75002Y24947D01*
X75150Y25021D01*
X75335Y25133D01*
X75595Y25225D01*
X75891Y25318D01*
X76261Y25373D01*
X76687Y25392D01*
X76872D01*
X77058Y25373D01*
X77317Y25336D01*
X77576Y25299D01*
X77854Y25225D01*
X78113Y25133D01*
X78335Y25003D01*
X78354Y24984D01*
X78428Y24929D01*
X78520Y24836D01*
X78632Y24688D01*
X78743Y24503D01*
X78872Y24262D01*
X78983Y23966D01*
X79094Y23633D01*
X80631Y23836D01*
Y23855D01*
X80613Y23873D01*
Y23929D01*
X80594Y24003D01*
X80539Y24170D01*
X80465Y24410D01*
X80372Y24651D01*
X80261Y24910D01*
X80113Y25169D01*
X79946Y25410D01*
X79928Y25429D01*
X79854Y25503D01*
X79742Y25614D01*
X79594Y25762D01*
X79391Y25910D01*
X79150Y26058D01*
X78872Y26225D01*
X78557Y26355D01*
X78539D01*
X78520Y26373D01*
X78465Y26392D01*
X78391Y26410D01*
X78206Y26466D01*
X77946Y26521D01*
X77650Y26577D01*
X77280Y26632D01*
X76891Y26669D01*
X76446Y26688D01*
D02*
G37*
G36*
X222913Y29725D02*
Y26484D01*
X221320D01*
Y25262D01*
X222913D01*
Y19800D01*
Y19763D01*
Y19689D01*
Y19577D01*
X222894Y19448D01*
X222876Y19152D01*
X222857Y19022D01*
X222839Y18929D01*
X222820Y18892D01*
X222765Y18818D01*
X222691Y18726D01*
X222561Y18633D01*
X222524Y18615D01*
X222431Y18578D01*
X222265Y18541D01*
X222024Y18522D01*
X221839D01*
X221746Y18541D01*
X221617D01*
X221469Y18559D01*
X221320Y18578D01*
X221117Y17189D01*
X221154D01*
X221228Y17170D01*
X221357Y17152D01*
X221524Y17133D01*
X221709Y17096D01*
X221913Y17078D01*
X222320Y17059D01*
X222468D01*
X222617Y17078D01*
X222802Y17096D01*
X223024Y17115D01*
X223246Y17170D01*
X223450Y17226D01*
X223654Y17319D01*
X223672Y17337D01*
X223727Y17374D01*
X223802Y17430D01*
X223913Y17522D01*
X224005Y17615D01*
X224116Y17744D01*
X224228Y17874D01*
X224302Y18041D01*
Y18059D01*
X224339Y18133D01*
X224357Y18263D01*
X224394Y18448D01*
X224431Y18689D01*
X224450Y18837D01*
Y19003D01*
X224468Y19207D01*
X224487Y19411D01*
Y19633D01*
Y19892D01*
Y25262D01*
X225653D01*
Y26484D01*
X224487D01*
Y28780D01*
X222913Y29725D01*
D02*
G37*
G36*
X209840Y26484D02*
X208266D01*
Y21318D01*
Y21300D01*
Y21263D01*
Y21207D01*
Y21114D01*
Y20911D01*
X208248Y20652D01*
Y20374D01*
X208229Y20096D01*
X208211Y19855D01*
X208174Y19652D01*
Y19633D01*
X208137Y19559D01*
X208099Y19448D01*
X208044Y19300D01*
X207951Y19152D01*
X207840Y18985D01*
X207711Y18837D01*
X207544Y18689D01*
X207526Y18670D01*
X207451Y18633D01*
X207359Y18578D01*
X207211Y18522D01*
X207044Y18448D01*
X206840Y18392D01*
X206618Y18355D01*
X206359Y18337D01*
X206229D01*
X206100Y18355D01*
X205933Y18374D01*
X205729Y18429D01*
X205507Y18485D01*
X205266Y18578D01*
X205026Y18689D01*
X204989Y18707D01*
X204915Y18763D01*
X204804Y18837D01*
X204674Y18948D01*
X204526Y19096D01*
X204378Y19263D01*
X204248Y19448D01*
X204137Y19670D01*
X204118Y19707D01*
X204100Y19781D01*
X204063Y19929D01*
X204007Y20133D01*
X203952Y20392D01*
X203915Y20707D01*
X203896Y21077D01*
X203878Y21503D01*
Y26484D01*
X202304D01*
Y17189D01*
X203711D01*
Y18541D01*
X203730Y18522D01*
X203767Y18467D01*
X203822Y18392D01*
X203915Y18300D01*
X204026Y18189D01*
X204156Y18041D01*
X204304Y17911D01*
X204489Y17763D01*
X204692Y17615D01*
X204915Y17485D01*
X205155Y17356D01*
X205415Y17226D01*
X205711Y17133D01*
X206007Y17059D01*
X206341Y17004D01*
X206674Y16985D01*
X206803D01*
X206970Y17004D01*
X207174Y17022D01*
X207414Y17059D01*
X207674Y17115D01*
X207933Y17189D01*
X208211Y17300D01*
X208248Y17319D01*
X208322Y17356D01*
X208451Y17430D01*
X208599Y17522D01*
X208785Y17633D01*
X208951Y17763D01*
X209118Y17911D01*
X209266Y18078D01*
X209285Y18096D01*
X209322Y18170D01*
X209377Y18263D01*
X209451Y18411D01*
X209544Y18578D01*
X209618Y18781D01*
X209692Y19003D01*
X209748Y19244D01*
Y19263D01*
X209766Y19337D01*
X209785Y19448D01*
Y19596D01*
X209803Y19818D01*
X209822Y20059D01*
X209840Y20374D01*
Y26484D01*
D02*
G37*
G36*
X181139Y26688D02*
X180991D01*
X180880Y26669D01*
X180769D01*
X180621Y26651D01*
X180269Y26595D01*
X179880Y26503D01*
X179473Y26355D01*
X179065Y26169D01*
X178677Y25910D01*
X178658D01*
X178640Y25873D01*
X178528Y25762D01*
X178362Y25595D01*
X178158Y25355D01*
X177955Y25058D01*
X177751Y24688D01*
X177566Y24262D01*
X177436Y23762D01*
X178973Y23521D01*
Y23540D01*
X178991Y23559D01*
X179010Y23670D01*
X179065Y23836D01*
X179158Y24040D01*
X179251Y24262D01*
X179399Y24503D01*
X179566Y24725D01*
X179751Y24910D01*
X179769Y24929D01*
X179843Y24984D01*
X179973Y25058D01*
X180121Y25151D01*
X180325Y25244D01*
X180547Y25318D01*
X180806Y25373D01*
X181084Y25392D01*
X181195D01*
X181287Y25373D01*
X181491Y25355D01*
X181769Y25281D01*
X182065Y25188D01*
X182398Y25040D01*
X182713Y24818D01*
X182861Y24688D01*
X183009Y24540D01*
Y24521D01*
X183047Y24503D01*
X183084Y24447D01*
X183121Y24373D01*
X183176Y24281D01*
X183250Y24170D01*
X183306Y24040D01*
X183380Y23892D01*
X183454Y23707D01*
X183510Y23503D01*
X183584Y23281D01*
X183639Y23040D01*
X183676Y22781D01*
X183713Y22485D01*
X183750Y22170D01*
Y21837D01*
Y21818D01*
Y21762D01*
Y21651D01*
X183732Y21540D01*
Y21374D01*
X183713Y21207D01*
X183658Y20800D01*
X183584Y20355D01*
X183454Y19892D01*
X183287Y19485D01*
X183176Y19281D01*
X183047Y19115D01*
X183009Y19078D01*
X182917Y18985D01*
X182750Y18855D01*
X182547Y18707D01*
X182269Y18541D01*
X181954Y18411D01*
X181584Y18318D01*
X181380Y18300D01*
X181176Y18281D01*
X181139D01*
X181028Y18300D01*
X180843Y18318D01*
X180639Y18355D01*
X180399Y18411D01*
X180140Y18522D01*
X179880Y18652D01*
X179639Y18837D01*
X179603Y18855D01*
X179547Y18948D01*
X179436Y19078D01*
X179306Y19281D01*
X179177Y19522D01*
X179028Y19818D01*
X178917Y20189D01*
X178843Y20596D01*
X177288Y20392D01*
Y20374D01*
X177306Y20318D01*
X177325Y20244D01*
X177344Y20133D01*
X177381Y19985D01*
X177418Y19837D01*
X177547Y19466D01*
X177714Y19078D01*
X177955Y18652D01*
X178251Y18244D01*
X178417Y18059D01*
X178603Y17874D01*
X178621Y17855D01*
X178658Y17837D01*
X178714Y17800D01*
X178788Y17744D01*
X178880Y17670D01*
X179010Y17596D01*
X179158Y17522D01*
X179306Y17430D01*
X179677Y17263D01*
X180121Y17133D01*
X180602Y17022D01*
X180880Y17004D01*
X181158Y16985D01*
X181343D01*
X181473Y17004D01*
X181639Y17022D01*
X181824Y17059D01*
X182028Y17096D01*
X182250Y17133D01*
X182750Y17281D01*
X182991Y17392D01*
X183250Y17504D01*
X183510Y17652D01*
X183750Y17818D01*
X183991Y18004D01*
X184213Y18226D01*
X184232Y18244D01*
X184269Y18281D01*
X184324Y18355D01*
X184398Y18448D01*
X184472Y18578D01*
X184583Y18744D01*
X184676Y18929D01*
X184787Y19133D01*
X184898Y19374D01*
X184991Y19652D01*
X185102Y19929D01*
X185176Y20263D01*
X185250Y20596D01*
X185306Y20985D01*
X185343Y21374D01*
X185361Y21799D01*
Y22059D01*
X185343Y22188D01*
Y22336D01*
X185324Y22503D01*
X185306Y22688D01*
X185250Y23096D01*
X185158Y23540D01*
X185046Y23984D01*
X184880Y24429D01*
Y24447D01*
X184861Y24484D01*
X184824Y24540D01*
X184787Y24614D01*
X184676Y24818D01*
X184509Y25058D01*
X184287Y25336D01*
X184028Y25614D01*
X183713Y25892D01*
X183361Y26114D01*
X183343D01*
X183306Y26132D01*
X183250Y26169D01*
X183176Y26207D01*
X183084Y26244D01*
X182973Y26299D01*
X182695Y26410D01*
X182380Y26503D01*
X181991Y26595D01*
X181584Y26669D01*
X181139Y26688D01*
D02*
G37*
G36*
X97481D02*
X97296D01*
X97167Y26669D01*
X97018Y26651D01*
X96833Y26614D01*
X96630Y26577D01*
X96389Y26521D01*
X96167Y26466D01*
X95907Y26373D01*
X95667Y26281D01*
X95407Y26151D01*
X95148Y26003D01*
X94889Y25836D01*
X94648Y25632D01*
X94426Y25410D01*
X94408Y25392D01*
X94371Y25355D01*
X94315Y25281D01*
X94241Y25169D01*
X94148Y25040D01*
X94056Y24892D01*
X93945Y24707D01*
X93834Y24484D01*
X93722Y24244D01*
X93611Y23984D01*
X93519Y23688D01*
X93426Y23373D01*
X93352Y23022D01*
X93297Y22651D01*
X93260Y22262D01*
X93241Y21837D01*
Y21614D01*
X93260Y21429D01*
X100203D01*
Y21411D01*
Y21355D01*
X100185Y21281D01*
Y21170D01*
X100166Y21040D01*
X100129Y20892D01*
X100074Y20559D01*
X99963Y20189D01*
X99815Y19781D01*
X99611Y19411D01*
X99352Y19078D01*
X99333D01*
X99314Y19040D01*
X99203Y18948D01*
X99037Y18818D01*
X98815Y18689D01*
X98518Y18541D01*
X98185Y18411D01*
X97815Y18318D01*
X97611Y18300D01*
X97389Y18281D01*
X97241D01*
X97074Y18300D01*
X96870Y18337D01*
X96648Y18392D01*
X96389Y18467D01*
X96148Y18578D01*
X95907Y18726D01*
X95889Y18744D01*
X95796Y18818D01*
X95685Y18929D01*
X95556Y19078D01*
X95407Y19281D01*
X95241Y19540D01*
X95074Y19837D01*
X94926Y20189D01*
X93297Y19985D01*
Y19966D01*
X93315Y19929D01*
X93334Y19855D01*
X93371Y19744D01*
X93426Y19633D01*
X93482Y19485D01*
X93630Y19170D01*
X93815Y18818D01*
X94074Y18448D01*
X94371Y18096D01*
X94741Y17763D01*
X94759D01*
X94796Y17726D01*
X94852Y17689D01*
X94926Y17633D01*
X95037Y17578D01*
X95148Y17522D01*
X95296Y17448D01*
X95463Y17374D01*
X95648Y17300D01*
X95833Y17226D01*
X96296Y17115D01*
X96815Y17022D01*
X97389Y16985D01*
X97592D01*
X97722Y17004D01*
X97889Y17022D01*
X98092Y17059D01*
X98315Y17096D01*
X98555Y17133D01*
X99074Y17281D01*
X99352Y17392D01*
X99611Y17504D01*
X99888Y17652D01*
X100148Y17818D01*
X100388Y18004D01*
X100629Y18226D01*
X100648Y18244D01*
X100685Y18281D01*
X100740Y18355D01*
X100814Y18467D01*
X100907Y18596D01*
X100999Y18744D01*
X101111Y18929D01*
X101222Y19133D01*
X101333Y19374D01*
X101444Y19633D01*
X101537Y19929D01*
X101629Y20244D01*
X101703Y20577D01*
X101759Y20948D01*
X101796Y21337D01*
X101814Y21744D01*
Y21966D01*
X101796Y22133D01*
X101777Y22336D01*
X101759Y22559D01*
X101722Y22818D01*
X101666Y23077D01*
X101518Y23670D01*
X101425Y23966D01*
X101314Y24281D01*
X101166Y24577D01*
X100999Y24855D01*
X100814Y25133D01*
X100611Y25392D01*
X100592Y25410D01*
X100555Y25447D01*
X100481Y25503D01*
X100388Y25595D01*
X100277Y25688D01*
X100129Y25799D01*
X99963Y25929D01*
X99759Y26040D01*
X99555Y26169D01*
X99314Y26281D01*
X99055Y26392D01*
X98778Y26484D01*
X98481Y26577D01*
X98167Y26632D01*
X97833Y26669D01*
X97481Y26688D01*
D02*
G37*
G36*
X228727Y26484D02*
X227153D01*
Y17189D01*
X228727D01*
Y26484D01*
D02*
G37*
G36*
X189435Y18985D02*
X187639D01*
Y17189D01*
X189435D01*
Y18985D01*
D02*
G37*
G36*
X113980Y30002D02*
X108036D01*
X107888Y29984D01*
X107721D01*
X107332Y29965D01*
X106925Y29910D01*
X106480Y29854D01*
X106073Y29762D01*
X105869Y29706D01*
X105703Y29650D01*
X105684D01*
X105666Y29632D01*
X105555Y29576D01*
X105388Y29502D01*
X105184Y29373D01*
X104962Y29206D01*
X104721Y28984D01*
X104499Y28725D01*
X104277Y28428D01*
Y28410D01*
X104258Y28391D01*
X104184Y28280D01*
X104110Y28095D01*
X103999Y27854D01*
X103907Y27577D01*
X103814Y27243D01*
X103758Y26892D01*
X103740Y26503D01*
Y26484D01*
Y26447D01*
Y26373D01*
X103758Y26281D01*
Y26151D01*
X103777Y26021D01*
X103851Y25707D01*
X103962Y25336D01*
X104110Y24947D01*
X104333Y24558D01*
X104481Y24373D01*
X104629Y24188D01*
X104647Y24170D01*
X104666Y24151D01*
X104721Y24096D01*
X104795Y24040D01*
X104888Y23966D01*
X104999Y23892D01*
X105147Y23799D01*
X105295Y23688D01*
X105480Y23596D01*
X105684Y23503D01*
X105906Y23392D01*
X106147Y23299D01*
X106425Y23225D01*
X106703Y23133D01*
X107017Y23077D01*
X107351Y23022D01*
X107314Y23003D01*
X107240Y22966D01*
X107128Y22892D01*
X106980Y22818D01*
X106647Y22614D01*
X106480Y22485D01*
X106332Y22373D01*
X106295Y22336D01*
X106203Y22244D01*
X106055Y22096D01*
X105869Y21911D01*
X105666Y21651D01*
X105425Y21374D01*
X105184Y21040D01*
X104925Y20670D01*
X102722Y17189D01*
X104832D01*
X106517Y19855D01*
Y19874D01*
X106554Y19911D01*
X106592Y19966D01*
X106647Y20040D01*
X106777Y20244D01*
X106943Y20503D01*
X107147Y20781D01*
X107351Y21077D01*
X107554Y21355D01*
X107740Y21614D01*
X107758Y21633D01*
X107814Y21707D01*
X107906Y21818D01*
X108036Y21948D01*
X108314Y22225D01*
X108462Y22355D01*
X108610Y22466D01*
X108628Y22485D01*
X108665Y22503D01*
X108740Y22540D01*
X108851Y22596D01*
X108962Y22651D01*
X109091Y22707D01*
X109388Y22799D01*
X109406D01*
X109443Y22818D01*
X109517D01*
X109610Y22836D01*
X109739Y22855D01*
X109888D01*
X110091Y22873D01*
X112276D01*
Y17189D01*
X113980D01*
Y30002D01*
D02*
G37*
G36*
X91408D02*
X82205D01*
Y28484D01*
X89445Y19614D01*
X90204Y18707D01*
X82001D01*
Y17189D01*
X92149D01*
Y18763D01*
X85575Y26947D01*
Y26966D01*
X85538Y26984D01*
X85446Y27095D01*
X85316Y27262D01*
X85149Y27466D01*
X84946Y27706D01*
X84723Y27966D01*
X84483Y28225D01*
X84242Y28484D01*
X91408D01*
Y30002D01*
D02*
G37*
G36*
X70743Y29836D02*
X62448D01*
Y28595D01*
X62467Y28577D01*
X62503Y28540D01*
X62578Y28465D01*
X62652Y28354D01*
X62763Y28225D01*
X62911Y28077D01*
X63059Y27891D01*
X63226Y27669D01*
X63392Y27447D01*
X63596Y27188D01*
X63800Y26892D01*
X64003Y26595D01*
X64226Y26262D01*
X64448Y25910D01*
X64670Y25521D01*
X64892Y25133D01*
X64911Y25114D01*
X64948Y25040D01*
X65003Y24929D01*
X65096Y24762D01*
X65188Y24558D01*
X65300Y24336D01*
X65429Y24077D01*
X65559Y23781D01*
X65707Y23447D01*
X65873Y23114D01*
X66022Y22744D01*
X66170Y22355D01*
X66466Y21559D01*
X66744Y20707D01*
Y20689D01*
X66762Y20633D01*
X66781Y20540D01*
X66818Y20429D01*
X66855Y20281D01*
X66892Y20096D01*
X66947Y19892D01*
X66985Y19670D01*
X67040Y19411D01*
X67096Y19133D01*
X67188Y18541D01*
X67281Y17893D01*
X67336Y17189D01*
X68947D01*
Y17207D01*
Y17263D01*
Y17337D01*
X68929Y17448D01*
Y17596D01*
X68910Y17781D01*
X68892Y17985D01*
X68873Y18207D01*
X68836Y18467D01*
X68799Y18726D01*
X68744Y19040D01*
X68688Y19355D01*
X68632Y19689D01*
X68558Y20059D01*
X68373Y20818D01*
Y20837D01*
X68355Y20911D01*
X68318Y21022D01*
X68262Y21188D01*
X68207Y21374D01*
X68133Y21596D01*
X68059Y21855D01*
X67947Y22133D01*
X67836Y22448D01*
X67725Y22762D01*
X67447Y23466D01*
X67114Y24207D01*
X66744Y24947D01*
X66725Y24966D01*
X66688Y25040D01*
X66633Y25133D01*
X66559Y25281D01*
X66466Y25447D01*
X66336Y25651D01*
X66207Y25873D01*
X66059Y26114D01*
X65707Y26651D01*
X65336Y27206D01*
X64911Y27780D01*
X64466Y28317D01*
X70743D01*
Y29836D01*
D02*
G37*
G36*
X172177Y26688D02*
X171992D01*
X171863Y26669D01*
X171696Y26651D01*
X171511Y26614D01*
X171307Y26577D01*
X171066Y26540D01*
X170566Y26373D01*
X170307Y26281D01*
X170048Y26151D01*
X169789Y26021D01*
X169529Y25836D01*
X169289Y25651D01*
X169048Y25429D01*
X169030Y25410D01*
X168993Y25373D01*
X168937Y25299D01*
X168863Y25207D01*
X168770Y25077D01*
X168659Y24910D01*
X168548Y24725D01*
X168437Y24521D01*
X168326Y24299D01*
X168215Y24021D01*
X168104Y23744D01*
X168011Y23429D01*
X167937Y23096D01*
X167882Y22744D01*
X167844Y22373D01*
X167826Y21966D01*
Y21670D01*
X167844Y21522D01*
X167863Y21337D01*
Y21151D01*
X167900Y20948D01*
X167955Y20485D01*
X168067Y20022D01*
X168196Y19559D01*
X168381Y19133D01*
Y19115D01*
X168400Y19096D01*
X168437Y19040D01*
X168474Y18966D01*
X168604Y18781D01*
X168770Y18559D01*
X168993Y18300D01*
X169270Y18041D01*
X169585Y17781D01*
X169955Y17541D01*
X169974D01*
X169992Y17522D01*
X170048Y17485D01*
X170140Y17448D01*
X170233Y17411D01*
X170344Y17374D01*
X170622Y17263D01*
X170937Y17170D01*
X171326Y17078D01*
X171733Y17004D01*
X172177Y16985D01*
X172362D01*
X172511Y17004D01*
X172677Y17022D01*
X172862Y17059D01*
X173085Y17096D01*
X173307Y17133D01*
X173807Y17281D01*
X174084Y17392D01*
X174344Y17504D01*
X174603Y17652D01*
X174862Y17818D01*
X175103Y18004D01*
X175344Y18226D01*
X175362Y18244D01*
X175399Y18281D01*
X175455Y18355D01*
X175529Y18467D01*
X175621Y18596D01*
X175714Y18744D01*
X175825Y18929D01*
X175936Y19152D01*
X176047Y19392D01*
X176158Y19670D01*
X176251Y19966D01*
X176344Y20281D01*
X176418Y20633D01*
X176473Y21003D01*
X176510Y21411D01*
X176529Y21837D01*
Y21948D01*
X176510Y22077D01*
Y22262D01*
X176492Y22466D01*
X176455Y22725D01*
X176418Y22985D01*
X176344Y23281D01*
X176269Y23577D01*
X176177Y23892D01*
X176066Y24225D01*
X175918Y24540D01*
X175770Y24836D01*
X175566Y25133D01*
X175362Y25410D01*
X175103Y25651D01*
X175084Y25670D01*
X175047Y25688D01*
X174973Y25744D01*
X174881Y25818D01*
X174770Y25892D01*
X174622Y25984D01*
X174473Y26077D01*
X174288Y26169D01*
X174084Y26262D01*
X173862Y26355D01*
X173362Y26521D01*
X172788Y26651D01*
X172492Y26669D01*
X172177Y26688D01*
D02*
G37*
G36*
X148513Y30225D02*
X147254D01*
X150976Y16967D01*
X152235D01*
X148513Y30225D01*
D02*
G37*
%LPD*%
G36*
X212821Y41416D02*
X209673D01*
X209433Y41434D01*
X209174Y41453D01*
X208914Y41471D01*
X208655Y41508D01*
X208451Y41546D01*
X208414Y41564D01*
X208340Y41582D01*
X208229Y41638D01*
X208081Y41712D01*
X207933Y41786D01*
X207766Y41897D01*
X207600Y42045D01*
X207470Y42194D01*
X207451Y42212D01*
X207414Y42268D01*
X207359Y42379D01*
X207303Y42508D01*
X207248Y42656D01*
X207192Y42842D01*
X207155Y43064D01*
X207137Y43305D01*
Y43342D01*
Y43416D01*
X207155Y43527D01*
X207174Y43675D01*
X207211Y43860D01*
X207266Y44045D01*
X207340Y44230D01*
X207451Y44416D01*
X207470Y44434D01*
X207507Y44490D01*
X207581Y44582D01*
X207674Y44675D01*
X207803Y44786D01*
X207951Y44897D01*
X208137Y45008D01*
X208340Y45082D01*
X208359D01*
X208451Y45119D01*
X208581Y45138D01*
X208785Y45175D01*
X209062Y45212D01*
X209377Y45230D01*
X209785Y45267D01*
X212821D01*
Y41416D01*
D02*
G37*
G36*
Y35491D02*
X209174D01*
X208785Y35509D01*
X208618Y35528D01*
X208470Y35546D01*
X208451D01*
X208377Y35565D01*
X208266Y35583D01*
X208137Y35620D01*
X207822Y35731D01*
X207507Y35879D01*
X207488Y35898D01*
X207433Y35935D01*
X207359Y35991D01*
X207266Y36065D01*
X207174Y36176D01*
X207044Y36287D01*
X206952Y36435D01*
X206840Y36602D01*
X206822Y36620D01*
X206803Y36676D01*
X206766Y36787D01*
X206711Y36916D01*
X206655Y37064D01*
X206618Y37250D01*
X206600Y37472D01*
X206581Y37694D01*
Y37731D01*
Y37805D01*
X206600Y37953D01*
X206637Y38120D01*
X206674Y38305D01*
X206748Y38509D01*
X206840Y38712D01*
X206970Y38916D01*
X206989Y38935D01*
X207044Y39009D01*
X207118Y39101D01*
X207229Y39212D01*
X207377Y39342D01*
X207563Y39472D01*
X207766Y39583D01*
X208007Y39675D01*
X208044Y39694D01*
X208118Y39712D01*
X208285Y39749D01*
X208488Y39786D01*
X208748Y39823D01*
X209062Y39860D01*
X209451Y39897D01*
X212821D01*
Y35491D01*
D02*
G37*
G36*
X194175Y42157D02*
X194379Y42138D01*
X194657Y42064D01*
X194971Y41953D01*
X195305Y41805D01*
X195619Y41582D01*
X195786Y41434D01*
X195934Y41286D01*
Y41268D01*
X195971Y41249D01*
X196008Y41194D01*
X196064Y41120D01*
X196119Y41027D01*
X196175Y40916D01*
X196249Y40768D01*
X196323Y40620D01*
X196397Y40434D01*
X196471Y40249D01*
X196527Y40027D01*
X196582Y39786D01*
X196638Y39527D01*
X196675Y39249D01*
X196693Y38935D01*
X196712Y38620D01*
Y38601D01*
Y38546D01*
Y38453D01*
X196693Y38324D01*
Y38175D01*
X196675Y38009D01*
X196619Y37620D01*
X196527Y37176D01*
X196378Y36731D01*
X196193Y36305D01*
X196064Y36120D01*
X195934Y35935D01*
X195916D01*
X195897Y35898D01*
X195786Y35805D01*
X195619Y35657D01*
X195397Y35509D01*
X195119Y35342D01*
X194786Y35194D01*
X194397Y35102D01*
X194194Y35083D01*
X193971Y35065D01*
X193860D01*
X193768Y35083D01*
X193564Y35120D01*
X193286Y35176D01*
X192990Y35287D01*
X192657Y35435D01*
X192342Y35657D01*
X192175Y35805D01*
X192027Y35954D01*
X192009Y35972D01*
X191990Y35991D01*
X191953Y36046D01*
X191898Y36120D01*
X191842Y36213D01*
X191768Y36324D01*
X191694Y36472D01*
X191620Y36620D01*
X191546Y36805D01*
X191490Y37009D01*
X191416Y37231D01*
X191360Y37472D01*
X191305Y37750D01*
X191268Y38027D01*
X191231Y38342D01*
Y38675D01*
Y38694D01*
Y38749D01*
Y38842D01*
X191249Y38953D01*
Y39101D01*
X191268Y39268D01*
X191324Y39657D01*
X191416Y40064D01*
X191564Y40509D01*
X191768Y40916D01*
X191879Y41120D01*
X192027Y41286D01*
Y41305D01*
X192064Y41323D01*
X192175Y41434D01*
X192342Y41564D01*
X192564Y41731D01*
X192842Y41897D01*
X193175Y42045D01*
X193545Y42138D01*
X193749Y42157D01*
X193971Y42175D01*
X194083D01*
X194175Y42157D01*
D02*
G37*
G36*
X120516Y45527D02*
X120720Y45490D01*
X120960Y45434D01*
X121238Y45323D01*
X121534Y45156D01*
X121683Y45045D01*
X121831Y44934D01*
X121960Y44786D01*
X122090Y44619D01*
Y44601D01*
X122127Y44564D01*
X122164Y44490D01*
X122219Y44397D01*
X122275Y44249D01*
X122349Y44082D01*
X122405Y43879D01*
X122479Y43638D01*
X122553Y43360D01*
X122627Y43045D01*
X122701Y42694D01*
X122757Y42305D01*
X122812Y41860D01*
X122849Y41379D01*
X122868Y40860D01*
X122886Y40286D01*
Y40249D01*
Y40157D01*
Y39990D01*
X122868Y39768D01*
Y39527D01*
X122849Y39231D01*
X122831Y38916D01*
X122794Y38583D01*
X122701Y37861D01*
X122645Y37509D01*
X122571Y37176D01*
X122497Y36861D01*
X122386Y36565D01*
X122275Y36305D01*
X122146Y36083D01*
Y36065D01*
X122108Y36046D01*
X122016Y35916D01*
X121849Y35750D01*
X121645Y35565D01*
X121368Y35380D01*
X121053Y35213D01*
X120701Y35083D01*
X120516Y35065D01*
X120312Y35046D01*
X120201D01*
X120127Y35065D01*
X119942Y35102D01*
X119683Y35176D01*
X119405Y35305D01*
X119090Y35491D01*
X118942Y35602D01*
X118794Y35750D01*
X118646Y35898D01*
X118498Y36083D01*
Y36102D01*
X118461Y36139D01*
X118424Y36194D01*
X118387Y36287D01*
X118313Y36416D01*
X118257Y36583D01*
X118183Y36768D01*
X118109Y36990D01*
X118053Y37268D01*
X117979Y37564D01*
X117905Y37916D01*
X117850Y38287D01*
X117813Y38731D01*
X117776Y39194D01*
X117739Y39712D01*
Y40286D01*
Y40305D01*
Y40323D01*
Y40416D01*
Y40583D01*
X117757Y40805D01*
Y41045D01*
X117776Y41342D01*
X117794Y41657D01*
X117831Y42008D01*
X117924Y42712D01*
X117979Y43064D01*
X118053Y43397D01*
X118127Y43712D01*
X118238Y44008D01*
X118350Y44267D01*
X118479Y44490D01*
Y44508D01*
X118516Y44527D01*
X118553Y44582D01*
X118609Y44656D01*
X118776Y44823D01*
X118979Y45027D01*
X119257Y45212D01*
X119572Y45378D01*
X119738Y45452D01*
X119923Y45508D01*
X120127Y45527D01*
X120331Y45545D01*
X120442D01*
X120516Y45527D01*
D02*
G37*
G36*
X196082Y25373D02*
X196286Y25336D01*
X196527Y25281D01*
X196804Y25169D01*
X197101Y25003D01*
X197249Y24910D01*
X197397Y24781D01*
X197545Y24651D01*
X197693Y24484D01*
Y24466D01*
X197730Y24447D01*
X197767Y24392D01*
X197804Y24318D01*
X197860Y24225D01*
X197934Y24114D01*
X197990Y23984D01*
X198064Y23836D01*
X198138Y23651D01*
X198193Y23466D01*
X198267Y23244D01*
X198323Y23022D01*
X198360Y22762D01*
X198397Y22485D01*
X198434Y22207D01*
Y21892D01*
Y21874D01*
Y21818D01*
Y21725D01*
Y21614D01*
X198415Y21485D01*
Y21318D01*
X198378Y20966D01*
X198323Y20577D01*
X198249Y20170D01*
X198138Y19800D01*
X198064Y19633D01*
X197990Y19485D01*
Y19466D01*
X197952Y19429D01*
X197915Y19374D01*
X197860Y19300D01*
X197693Y19096D01*
X197453Y18892D01*
X197175Y18670D01*
X196823Y18467D01*
X196638Y18392D01*
X196416Y18337D01*
X196212Y18300D01*
X195971Y18281D01*
X195879D01*
X195805Y18300D01*
X195601Y18337D01*
X195360Y18392D01*
X195082Y18504D01*
X194786Y18652D01*
X194490Y18874D01*
X194342Y19022D01*
X194194Y19170D01*
Y19189D01*
X194156Y19207D01*
X194119Y19263D01*
X194083Y19337D01*
X194008Y19429D01*
X193953Y19540D01*
X193879Y19689D01*
X193805Y19837D01*
X193749Y20022D01*
X193675Y20207D01*
X193601Y20429D01*
X193545Y20670D01*
X193508Y20929D01*
X193471Y21207D01*
X193434Y21522D01*
Y21837D01*
Y21855D01*
Y21911D01*
Y22003D01*
X193453Y22133D01*
Y22281D01*
X193471Y22466D01*
X193527Y22855D01*
X193601Y23281D01*
X193731Y23744D01*
X193916Y24151D01*
X194027Y24355D01*
X194156Y24521D01*
Y24540D01*
X194194Y24558D01*
X194286Y24651D01*
X194434Y24799D01*
X194638Y24966D01*
X194897Y25114D01*
X195194Y25262D01*
X195545Y25355D01*
X195730Y25392D01*
X196008D01*
X196082Y25373D01*
D02*
G37*
G36*
X235338D02*
X235541Y25355D01*
X235782Y25281D01*
X236078Y25188D01*
X236374Y25021D01*
X236671Y24818D01*
X236819Y24670D01*
X236967Y24521D01*
Y24503D01*
X237004Y24484D01*
X237041Y24429D01*
X237078Y24355D01*
X237134Y24281D01*
X237189Y24170D01*
X237263Y24040D01*
X237319Y23892D01*
X237393Y23725D01*
X237467Y23521D01*
X237522Y23318D01*
X237578Y23096D01*
X237615Y22836D01*
X237652Y22577D01*
X237689Y22299D01*
Y21985D01*
Y21966D01*
Y21911D01*
Y21818D01*
X237670Y21688D01*
Y21540D01*
X237652Y21355D01*
X237596Y20966D01*
X237504Y20522D01*
X237393Y20096D01*
X237208Y19670D01*
X237097Y19485D01*
X236967Y19318D01*
X236930Y19281D01*
X236837Y19189D01*
X236689Y19059D01*
X236467Y18911D01*
X236208Y18744D01*
X235893Y18615D01*
X235541Y18522D01*
X235356Y18504D01*
X235152Y18485D01*
X235041D01*
X234967Y18504D01*
X234763Y18522D01*
X234504Y18596D01*
X234226Y18689D01*
X233912Y18837D01*
X233615Y19040D01*
X233467Y19170D01*
X233319Y19318D01*
Y19337D01*
X233282Y19355D01*
X233245Y19411D01*
X233208Y19485D01*
X233153Y19559D01*
X233078Y19670D01*
X233023Y19800D01*
X232949Y19966D01*
X232875Y20133D01*
X232819Y20318D01*
X232745Y20540D01*
X232690Y20781D01*
X232652Y21022D01*
X232616Y21300D01*
X232579Y21614D01*
Y21929D01*
Y21948D01*
Y22003D01*
Y22096D01*
X232597Y22207D01*
Y22355D01*
X232616Y22522D01*
X232671Y22892D01*
X232764Y23318D01*
X232893Y23744D01*
X233078Y24170D01*
X233208Y24355D01*
X233338Y24521D01*
Y24540D01*
X233375Y24558D01*
X233467Y24651D01*
X233634Y24799D01*
X233856Y24966D01*
X234115Y25114D01*
X234430Y25262D01*
X234782Y25355D01*
X234967Y25392D01*
X235263D01*
X235338Y25373D01*
D02*
G37*
G36*
X140162Y21837D02*
X140218Y21818D01*
X140292Y21799D01*
X140384Y21762D01*
X140495Y21725D01*
X140625Y21688D01*
X140773Y21651D01*
X140940Y21596D01*
X141144Y21559D01*
X141347Y21503D01*
X141588Y21448D01*
X141847Y21392D01*
X142106Y21337D01*
X142403Y21300D01*
X142717Y21244D01*
X142754D01*
X142866Y21226D01*
X143051Y21188D01*
X143254Y21151D01*
X143477Y21114D01*
X143699Y21059D01*
X143903Y21003D01*
X144088Y20929D01*
X144106D01*
X144162Y20892D01*
X144236Y20855D01*
X144310Y20800D01*
X144532Y20652D01*
X144717Y20429D01*
Y20411D01*
X144754Y20374D01*
X144773Y20300D01*
X144810Y20207D01*
X144847Y20096D01*
X144884Y19985D01*
X144902Y19837D01*
X144921Y19689D01*
Y19670D01*
Y19577D01*
X144902Y19466D01*
X144865Y19318D01*
X144810Y19152D01*
X144717Y18985D01*
X144606Y18800D01*
X144458Y18633D01*
X144439Y18615D01*
X144365Y18578D01*
X144254Y18504D01*
X144106Y18429D01*
X143903Y18355D01*
X143662Y18281D01*
X143384Y18244D01*
X143051Y18226D01*
X142903D01*
X142717Y18244D01*
X142514Y18281D01*
X142254Y18318D01*
X141995Y18392D01*
X141718Y18485D01*
X141440Y18615D01*
X141403Y18633D01*
X141329Y18689D01*
X141199Y18781D01*
X141051Y18911D01*
X140884Y19059D01*
X140699Y19244D01*
X140551Y19466D01*
X140403Y19707D01*
X140384Y19726D01*
X140366Y19800D01*
X140329Y19929D01*
X140273Y20096D01*
X140218Y20318D01*
X140181Y20577D01*
X140162Y20892D01*
X140144Y21263D01*
X140125Y21855D01*
X140144D01*
X140162Y21837D01*
D02*
G37*
G36*
X118257D02*
X118313Y21818D01*
X118387Y21799D01*
X118479Y21762D01*
X118590Y21725D01*
X118720Y21688D01*
X118868Y21651D01*
X119035Y21596D01*
X119238Y21559D01*
X119442Y21503D01*
X119683Y21448D01*
X119942Y21392D01*
X120201Y21337D01*
X120498Y21300D01*
X120812Y21244D01*
X120849D01*
X120960Y21226D01*
X121146Y21188D01*
X121349Y21151D01*
X121572Y21114D01*
X121794Y21059D01*
X121997Y21003D01*
X122183Y20929D01*
X122201D01*
X122257Y20892D01*
X122331Y20855D01*
X122405Y20800D01*
X122627Y20652D01*
X122812Y20429D01*
Y20411D01*
X122849Y20374D01*
X122868Y20300D01*
X122905Y20207D01*
X122942Y20096D01*
X122979Y19985D01*
X122997Y19837D01*
X123016Y19689D01*
Y19670D01*
Y19577D01*
X122997Y19466D01*
X122960Y19318D01*
X122905Y19152D01*
X122812Y18985D01*
X122701Y18800D01*
X122553Y18633D01*
X122534Y18615D01*
X122460Y18578D01*
X122349Y18504D01*
X122201Y18429D01*
X121997Y18355D01*
X121757Y18281D01*
X121479Y18244D01*
X121146Y18226D01*
X120997D01*
X120812Y18244D01*
X120609Y18281D01*
X120349Y18318D01*
X120090Y18392D01*
X119812Y18485D01*
X119535Y18615D01*
X119498Y18633D01*
X119424Y18689D01*
X119294Y18781D01*
X119146Y18911D01*
X118979Y19059D01*
X118794Y19244D01*
X118646Y19466D01*
X118498Y19707D01*
X118479Y19726D01*
X118461Y19800D01*
X118424Y19929D01*
X118368Y20096D01*
X118313Y20318D01*
X118275Y20577D01*
X118257Y20892D01*
X118238Y21263D01*
X118220Y21855D01*
X118238D01*
X118257Y21837D01*
D02*
G37*
G36*
X74465D02*
X74521Y21818D01*
X74595Y21799D01*
X74687Y21762D01*
X74798Y21725D01*
X74928Y21688D01*
X75076Y21651D01*
X75243Y21596D01*
X75447Y21559D01*
X75650Y21503D01*
X75891Y21448D01*
X76150Y21392D01*
X76410Y21337D01*
X76706Y21300D01*
X77021Y21244D01*
X77058D01*
X77169Y21226D01*
X77354Y21188D01*
X77558Y21151D01*
X77780Y21114D01*
X78002Y21059D01*
X78206Y21003D01*
X78391Y20929D01*
X78409D01*
X78465Y20892D01*
X78539Y20855D01*
X78613Y20800D01*
X78835Y20652D01*
X79020Y20429D01*
Y20411D01*
X79057Y20374D01*
X79076Y20300D01*
X79113Y20207D01*
X79150Y20096D01*
X79187Y19985D01*
X79205Y19837D01*
X79224Y19689D01*
Y19670D01*
Y19577D01*
X79205Y19466D01*
X79168Y19318D01*
X79113Y19152D01*
X79020Y18985D01*
X78909Y18800D01*
X78761Y18633D01*
X78743Y18615D01*
X78668Y18578D01*
X78557Y18504D01*
X78409Y18429D01*
X78206Y18355D01*
X77965Y18281D01*
X77687Y18244D01*
X77354Y18226D01*
X77206D01*
X77021Y18244D01*
X76817Y18281D01*
X76558Y18318D01*
X76298Y18392D01*
X76021Y18485D01*
X75743Y18615D01*
X75706Y18633D01*
X75632Y18689D01*
X75502Y18781D01*
X75354Y18911D01*
X75187Y19059D01*
X75002Y19244D01*
X74854Y19466D01*
X74706Y19707D01*
X74687Y19726D01*
X74669Y19800D01*
X74632Y19929D01*
X74576Y20096D01*
X74521Y20318D01*
X74484Y20577D01*
X74465Y20892D01*
X74447Y21263D01*
X74428Y21855D01*
X74447D01*
X74465Y21837D01*
D02*
G37*
G36*
X97648Y25373D02*
X97852Y25355D01*
X98092Y25299D01*
X98389Y25207D01*
X98703Y25077D01*
X99000Y24892D01*
X99296Y24651D01*
X99333Y24614D01*
X99407Y24521D01*
X99537Y24355D01*
X99666Y24133D01*
X99815Y23873D01*
X99944Y23540D01*
X100055Y23151D01*
X100111Y22725D01*
X94908D01*
Y22744D01*
Y22781D01*
X94926Y22836D01*
Y22910D01*
X94963Y23133D01*
X95019Y23373D01*
X95111Y23670D01*
X95204Y23947D01*
X95352Y24225D01*
X95519Y24466D01*
Y24484D01*
X95556Y24503D01*
X95648Y24614D01*
X95815Y24762D01*
X96037Y24929D01*
X96315Y25096D01*
X96648Y25244D01*
X97037Y25355D01*
X97241Y25373D01*
X97463Y25392D01*
X97574D01*
X97648Y25373D01*
D02*
G37*
G36*
X112276Y24336D02*
X108462D01*
X108239Y24355D01*
X107980Y24373D01*
X107684Y24392D01*
X107388Y24429D01*
X107092Y24484D01*
X106832Y24558D01*
X106795Y24577D01*
X106721Y24614D01*
X106610Y24670D01*
X106462Y24744D01*
X106295Y24855D01*
X106129Y24984D01*
X105962Y25151D01*
X105832Y25336D01*
X105814Y25355D01*
X105777Y25429D01*
X105721Y25540D01*
X105647Y25688D01*
X105592Y25855D01*
X105536Y26040D01*
X105499Y26262D01*
X105480Y26484D01*
Y26503D01*
Y26521D01*
X105499Y26632D01*
X105518Y26799D01*
X105555Y27021D01*
X105647Y27243D01*
X105758Y27503D01*
X105925Y27743D01*
X106147Y27984D01*
X106184Y28003D01*
X106277Y28077D01*
X106425Y28169D01*
X106666Y28280D01*
X106943Y28391D01*
X107314Y28484D01*
X107740Y28558D01*
X108239Y28577D01*
X112276D01*
Y24336D01*
D02*
G37*
G36*
X172381Y25373D02*
X172585Y25355D01*
X172862Y25281D01*
X173177Y25169D01*
X173510Y25021D01*
X173825Y24799D01*
X173992Y24651D01*
X174140Y24503D01*
Y24484D01*
X174177Y24466D01*
X174214Y24410D01*
X174270Y24336D01*
X174325Y24244D01*
X174381Y24133D01*
X174455Y23984D01*
X174529Y23836D01*
X174603Y23651D01*
X174677Y23466D01*
X174733Y23244D01*
X174788Y23003D01*
X174844Y22744D01*
X174881Y22466D01*
X174899Y22151D01*
X174918Y21837D01*
Y21818D01*
Y21762D01*
Y21670D01*
X174899Y21540D01*
Y21392D01*
X174881Y21226D01*
X174825Y20837D01*
X174733Y20392D01*
X174585Y19948D01*
X174399Y19522D01*
X174270Y19337D01*
X174140Y19152D01*
X174122D01*
X174103Y19115D01*
X173992Y19022D01*
X173825Y18874D01*
X173603Y18726D01*
X173325Y18559D01*
X172992Y18411D01*
X172603Y18318D01*
X172400Y18300D01*
X172177Y18281D01*
X172066D01*
X171974Y18300D01*
X171770Y18337D01*
X171492Y18392D01*
X171196Y18504D01*
X170863Y18652D01*
X170548Y18874D01*
X170381Y19022D01*
X170233Y19170D01*
X170215Y19189D01*
X170196Y19207D01*
X170159Y19263D01*
X170103Y19337D01*
X170048Y19429D01*
X169974Y19540D01*
X169900Y19689D01*
X169826Y19837D01*
X169752Y20022D01*
X169696Y20226D01*
X169622Y20448D01*
X169566Y20689D01*
X169511Y20966D01*
X169474Y21244D01*
X169437Y21559D01*
Y21892D01*
Y21911D01*
Y21966D01*
Y22059D01*
X169455Y22170D01*
Y22318D01*
X169474Y22485D01*
X169529Y22873D01*
X169622Y23281D01*
X169770Y23725D01*
X169974Y24133D01*
X170085Y24336D01*
X170233Y24503D01*
Y24521D01*
X170270Y24540D01*
X170381Y24651D01*
X170548Y24781D01*
X170770Y24947D01*
X171048Y25114D01*
X171381Y25262D01*
X171751Y25355D01*
X171955Y25373D01*
X172177Y25392D01*
X172288D01*
X172381Y25373D01*
D02*
G37*
M02*
