G04*
G04 #@! TF.GenerationSoftware,Altium Limited,Altium Designer,24.2.2 (26)*
G04*
G04 Layer_Color=65535*
%FSLAX44Y44*%
%MOMM*%
G71*
G04*
G04 #@! TF.SameCoordinates,DFB6B591-CCAE-404B-BE94-5E2210191FEB*
G04*
G04*
G04 #@! TF.FilePolarity,Positive*
G04*
G01*
G75*
%ADD10C,0.2500*%
%ADD11C,0.2000*%
%ADD12C,0.1500*%
%ADD13C,0.2540*%
G36*
X240932Y132080D02*
X219710D01*
Y142568D01*
X240932D01*
Y132080D01*
D02*
G37*
G36*
X244981Y55880D02*
X219710D01*
Y66645D01*
X244981D01*
Y55880D01*
D02*
G37*
G36*
X241403Y81280D02*
X219710D01*
Y91781D01*
X241403D01*
Y81280D01*
D02*
G37*
G36*
X242429Y106680D02*
X219710D01*
Y117112D01*
X242429D01*
Y106680D01*
D02*
G37*
%LPC*%
G36*
X231749Y141567D02*
X231597D01*
X231458Y141554D01*
X231402Y141540D01*
X231347D01*
X231306Y141526D01*
X231292D01*
X231181Y141512D01*
X231028D01*
X230973Y141498D01*
X228282D01*
X228185Y141512D01*
X228060D01*
X227922Y141526D01*
X227824Y141540D01*
X227741D01*
X227547Y141526D01*
X227395Y141484D01*
X227339Y141470D01*
X227297Y141443D01*
X227270Y141429D01*
X227256D01*
X227173Y141373D01*
X227103Y141304D01*
X227062Y141235D01*
X227020Y141179D01*
X227006Y141124D01*
X226992Y141068D01*
Y141040D01*
Y141027D01*
X227006Y140916D01*
X227034Y140805D01*
X227062Y140722D01*
X227076Y140694D01*
Y140680D01*
X227131Y140527D01*
X227159Y140430D01*
X227173Y140361D01*
Y140333D01*
Y140222D01*
X227159Y140097D01*
Y139959D01*
X227145Y139792D01*
X227117Y139459D01*
X227090Y139113D01*
X227048Y138794D01*
X227034Y138655D01*
X227020Y138530D01*
X227006Y138433D01*
Y138350D01*
X226992Y138294D01*
Y138281D01*
X226978Y138142D01*
X226965Y138017D01*
X226951Y137906D01*
Y137809D01*
X226923Y137643D01*
Y137532D01*
X226909Y137449D01*
Y137393D01*
Y137379D01*
Y137365D01*
X226923Y137268D01*
X226937Y137171D01*
X227006Y137019D01*
X227048Y136963D01*
X227076Y136922D01*
X227090Y136894D01*
X227103Y136880D01*
X227187Y136811D01*
X227270Y136769D01*
X227436Y136713D01*
X227505Y136700D01*
X227561Y136686D01*
X227617D01*
X227741Y136700D01*
X227852Y136727D01*
X227949Y136769D01*
X228046Y136825D01*
X228116Y136866D01*
X228171Y136908D01*
X228213Y136935D01*
X228227Y136949D01*
X228393Y137130D01*
X228532Y137296D01*
X228587Y137352D01*
X228629Y137407D01*
X228657Y137435D01*
X228671Y137449D01*
X228781Y137559D01*
X228892Y137657D01*
X229128Y137795D01*
X229378Y137906D01*
X229613Y137989D01*
X229821Y138031D01*
X229919Y138045D01*
X229988D01*
X230057Y138059D01*
X230140D01*
X230321Y138045D01*
X230487Y138003D01*
X230626Y137934D01*
X230737Y137865D01*
X230820Y137795D01*
X230875Y137726D01*
X230917Y137684D01*
X230931Y137670D01*
X231014Y137504D01*
X231084Y137324D01*
X231125Y137130D01*
X231167Y136935D01*
X231181Y136769D01*
X231194Y136616D01*
Y136561D01*
Y136533D01*
Y136505D01*
Y136492D01*
X231167Y136200D01*
X231111Y135937D01*
X231028Y135687D01*
X230931Y135493D01*
X230834Y135327D01*
X230751Y135202D01*
X230695Y135133D01*
X230667Y135105D01*
X230459Y134911D01*
X230224Y134772D01*
X230002Y134661D01*
X229794Y134592D01*
X229600Y134550D01*
X229461Y134536D01*
X229405Y134522D01*
X229322D01*
X229128Y134536D01*
X228962Y134550D01*
X228823Y134592D01*
X228698Y134633D01*
X228601Y134661D01*
X228532Y134703D01*
X228490Y134717D01*
X228476Y134730D01*
X228449Y134758D01*
X228393Y134813D01*
X228338Y134869D01*
X228254Y134952D01*
X228185Y135022D01*
X228130Y135091D01*
X228088Y135133D01*
X228074Y135146D01*
X227991Y135216D01*
X227908Y135271D01*
X227824Y135313D01*
X227741Y135340D01*
X227672Y135354D01*
X227630Y135368D01*
X227575D01*
X227464Y135354D01*
X227367Y135340D01*
X227214Y135271D01*
X227145Y135230D01*
X227103Y135188D01*
X227076Y135174D01*
X227062Y135160D01*
X226992Y135091D01*
X226937Y135008D01*
X226895Y134924D01*
X226868Y134841D01*
X226854Y134772D01*
X226840Y134730D01*
Y134675D01*
X226854Y134536D01*
X226909Y134425D01*
X226951Y134328D01*
X226965Y134314D01*
Y134300D01*
X227117Y134106D01*
X227284Y133926D01*
X227464Y133773D01*
X227658Y133649D01*
X227852Y133538D01*
X228046Y133441D01*
X228241Y133371D01*
X228435Y133302D01*
X228615Y133260D01*
X228781Y133219D01*
X228934Y133205D01*
X229059Y133177D01*
X229170D01*
X229253Y133163D01*
X229322D01*
X229600Y133177D01*
X229863Y133205D01*
X230113Y133246D01*
X230335Y133316D01*
X230557Y133385D01*
X230751Y133468D01*
X230931Y133565D01*
X231097Y133649D01*
X231250Y133746D01*
X231375Y133829D01*
X231486Y133912D01*
X231583Y133981D01*
X231652Y134051D01*
X231708Y134092D01*
X231735Y134120D01*
X231749Y134134D01*
X231902Y134314D01*
X232041Y134508D01*
X232165Y134703D01*
X232262Y134897D01*
X232346Y135091D01*
X232415Y135285D01*
X232526Y135660D01*
X232568Y135840D01*
X232595Y135992D01*
X232609Y136131D01*
X232623Y136256D01*
X232637Y136353D01*
Y136492D01*
X232609Y136922D01*
X232554Y137310D01*
X232456Y137643D01*
X232415Y137795D01*
X232360Y137920D01*
X232304Y138045D01*
X232262Y138156D01*
X232207Y138239D01*
X232165Y138322D01*
X232138Y138378D01*
X232110Y138419D01*
X232082Y138447D01*
Y138461D01*
X231957Y138627D01*
X231805Y138780D01*
X231652Y138905D01*
X231500Y139016D01*
X231347Y139113D01*
X231181Y139182D01*
X231028Y139251D01*
X230875Y139293D01*
X230584Y139362D01*
X230473Y139390D01*
X230362Y139404D01*
X230279Y139418D01*
X230154D01*
X229808Y139404D01*
X229489Y139362D01*
X229211Y139307D01*
X228976Y139251D01*
X228781Y139182D01*
X228643Y139127D01*
X228587Y139099D01*
X228546Y139085D01*
X228532Y139071D01*
X228518D01*
X228546Y139335D01*
X228573Y139557D01*
X228601Y139737D01*
X228615Y139889D01*
X228629Y140000D01*
X228643Y140084D01*
Y140125D01*
Y140139D01*
X230348D01*
X230418Y140125D01*
X230765D01*
X231042Y140139D01*
X231292Y140153D01*
X231500Y140195D01*
X231694Y140250D01*
X231846Y140305D01*
X231971Y140375D01*
X232082Y140444D01*
X232165Y140527D01*
X232221Y140597D01*
X232276Y140666D01*
X232318Y140735D01*
X232332Y140791D01*
X232346Y140846D01*
X232360Y140888D01*
Y140902D01*
Y140916D01*
X232346Y141013D01*
X232332Y141110D01*
X232262Y141249D01*
X232221Y141304D01*
X232193Y141346D01*
X232179Y141359D01*
X232165Y141373D01*
X232096Y141443D01*
X232013Y141484D01*
X231874Y141540D01*
X231805Y141554D01*
X231749Y141567D01*
D02*
G37*
G36*
X223151Y138988D02*
X223109D01*
X222984Y138974D01*
X222873Y138946D01*
X222776Y138891D01*
X222707Y138821D01*
X222568Y138655D01*
X222485Y138461D01*
X222444Y138267D01*
X222416Y138100D01*
X222402Y138031D01*
Y137976D01*
Y137948D01*
Y137934D01*
Y137851D01*
Y137767D01*
Y137698D01*
Y137684D01*
Y137670D01*
X222416Y137573D01*
Y137518D01*
Y137490D01*
Y137476D01*
X222138Y137462D01*
X222027D01*
X221930Y137449D01*
X221556D01*
X221403Y137435D01*
X221292Y137421D01*
X221195D01*
X221126Y137407D01*
X221084Y137393D01*
X221057Y137379D01*
X221043D01*
X220932Y137324D01*
X220849Y137240D01*
X220793Y137157D01*
X220752Y137060D01*
X220724Y136977D01*
X220710Y136908D01*
Y136838D01*
X220724Y136727D01*
X220765Y136630D01*
X220821Y136547D01*
X220890Y136478D01*
X220960Y136422D01*
X221015Y136381D01*
X221057Y136367D01*
X221071Y136353D01*
X221292Y136270D01*
X221500Y136228D01*
X221584D01*
X221667Y136214D01*
X221958D01*
X222180Y136228D01*
X222277D01*
X222346Y136242D01*
X222416D01*
Y136076D01*
Y135923D01*
Y135798D01*
Y135687D01*
Y135590D01*
Y135521D01*
Y135465D01*
Y135410D01*
Y135354D01*
Y135327D01*
X222430Y135230D01*
X222444Y135146D01*
X222513Y135008D01*
X222554Y134952D01*
X222582Y134911D01*
X222596Y134897D01*
X222610Y134883D01*
X222693Y134827D01*
X222763Y134786D01*
X222929Y134744D01*
X222998Y134730D01*
X223054Y134717D01*
X223095D01*
X223192Y134730D01*
X223290Y134744D01*
X223442Y134800D01*
X223498Y134827D01*
X223539Y134855D01*
X223553Y134883D01*
X223567D01*
X223636Y134952D01*
X223678Y135022D01*
X223733Y135174D01*
X223747Y135230D01*
X223761Y135285D01*
Y135313D01*
Y135327D01*
Y135368D01*
Y135438D01*
X223775Y135576D01*
Y135646D01*
Y135715D01*
Y135757D01*
Y135771D01*
Y135965D01*
Y136117D01*
Y136173D01*
Y136214D01*
Y136228D01*
Y136242D01*
X224191D01*
X224371Y136256D01*
X224676D01*
X224746Y136242D01*
X224801Y136228D01*
X224815D01*
X224898Y136214D01*
X224995D01*
X225106Y136228D01*
X225189Y136242D01*
X225342Y136311D01*
X225397Y136353D01*
X225453Y136381D01*
X225467Y136395D01*
X225481Y136408D01*
X225550Y136478D01*
X225592Y136561D01*
X225647Y136700D01*
X225661Y136769D01*
X225675Y136811D01*
Y136852D01*
X225661Y136963D01*
X225633Y137074D01*
X225578Y137157D01*
X225508Y137227D01*
X225328Y137352D01*
X225134Y137421D01*
X224940Y137476D01*
X224760Y137490D01*
X224690Y137504D01*
X224385D01*
X224302Y137490D01*
X224260D01*
X224122Y137476D01*
X223900D01*
X223844Y137490D01*
X223775D01*
X223761Y137851D01*
Y137934D01*
X223775Y138017D01*
Y138087D01*
Y138100D01*
Y138114D01*
X223789Y138225D01*
X223803Y138308D01*
Y138364D01*
Y138378D01*
X223789Y138475D01*
X223775Y138558D01*
X223706Y138697D01*
X223664Y138738D01*
X223622Y138780D01*
X223608Y138794D01*
X223595Y138808D01*
X223511Y138863D01*
X223428Y138919D01*
X223276Y138960D01*
X223206Y138974D01*
X223151Y138988D01*
D02*
G37*
G36*
X239224Y141554D02*
X239169D01*
X239058Y141540D01*
X238947Y141512D01*
X238850Y141470D01*
X238767Y141415D01*
X238711Y141359D01*
X238656Y141318D01*
X238628Y141290D01*
X238614Y141276D01*
X238475Y141110D01*
X238351Y140929D01*
X238240Y140735D01*
X238143Y140555D01*
X238059Y140389D01*
X237990Y140250D01*
X237962Y140195D01*
X237948Y140153D01*
X237935Y140139D01*
Y140125D01*
X237851Y139889D01*
X237768Y139668D01*
X237699Y139459D01*
X237629Y139265D01*
X237574Y139113D01*
X237532Y138988D01*
X237505Y138905D01*
X237491Y138891D01*
Y138877D01*
X237408Y138641D01*
X237311Y138392D01*
X237116Y137879D01*
X236908Y137338D01*
X236811Y137088D01*
X236714Y136838D01*
X236617Y136603D01*
X236534Y136381D01*
X236451Y136187D01*
X236381Y136020D01*
X236340Y135881D01*
X236298Y135771D01*
X236270Y135715D01*
X236257Y135687D01*
X236118Y136131D01*
X235965Y136589D01*
X235840Y137032D01*
X235716Y137449D01*
X235660Y137643D01*
X235618Y137809D01*
X235577Y137962D01*
X235535Y138100D01*
X235508Y138197D01*
X235480Y138281D01*
X235466Y138336D01*
Y138350D01*
X235355Y138752D01*
X235244Y139085D01*
X235161Y139376D01*
X235091Y139612D01*
X235036Y139806D01*
X234994Y139931D01*
X234981Y140014D01*
X234967Y140042D01*
X234883Y140375D01*
X234856Y140527D01*
X234828Y140666D01*
X234800Y140791D01*
X234773Y140874D01*
X234759Y140943D01*
Y140957D01*
X234676Y141138D01*
X234564Y141262D01*
X234440Y141359D01*
X234329Y141415D01*
X234218Y141456D01*
X234135Y141470D01*
X234079Y141484D01*
X234051D01*
X233941Y141470D01*
X233843Y141456D01*
X233691Y141387D01*
X233622Y141346D01*
X233580Y141318D01*
X233552Y141304D01*
X233538Y141290D01*
X233469Y141207D01*
X233414Y141124D01*
X233372Y141040D01*
X233344Y140957D01*
X233330Y140888D01*
X233316Y140832D01*
Y140694D01*
X233330Y140611D01*
X233358Y140402D01*
X233414Y140167D01*
X233469Y139945D01*
X233510Y139737D01*
X233566Y139570D01*
X233580Y139501D01*
X233594Y139446D01*
X233608Y139418D01*
Y139404D01*
X233691Y139141D01*
X233774Y138891D01*
X233843Y138641D01*
X233913Y138433D01*
X233954Y138253D01*
X233996Y138114D01*
X234024Y138059D01*
Y138017D01*
X234037Y138003D01*
Y137989D01*
X234176Y137462D01*
X234329Y136977D01*
X234454Y136519D01*
X234592Y136089D01*
X234717Y135701D01*
X234828Y135340D01*
X234939Y135008D01*
X235050Y134717D01*
X235133Y134453D01*
X235216Y134231D01*
X235286Y134037D01*
X235355Y133870D01*
X235397Y133759D01*
X235438Y133663D01*
X235452Y133607D01*
X235466Y133593D01*
X235563Y133427D01*
X235674Y133302D01*
X235799Y133205D01*
X235924Y133149D01*
X236035Y133108D01*
X236132Y133094D01*
X236187Y133080D01*
X236215D01*
X236367Y133094D01*
X236506Y133149D01*
X236617Y133219D01*
X236714Y133288D01*
X236784Y133371D01*
X236839Y133427D01*
X236867Y133482D01*
X236881Y133496D01*
X237005Y133732D01*
X237116Y133954D01*
X237213Y134176D01*
X237297Y134356D01*
X237366Y134522D01*
X237421Y134647D01*
X237449Y134730D01*
X237463Y134758D01*
X237629Y135202D01*
X237796Y135618D01*
X237948Y135992D01*
X238087Y136353D01*
X238212Y136672D01*
X238323Y136977D01*
X238434Y137240D01*
X238531Y137490D01*
X238614Y137698D01*
X238683Y137879D01*
X238739Y138045D01*
X238794Y138170D01*
X238822Y138267D01*
X238850Y138336D01*
X238878Y138378D01*
Y138392D01*
X238947Y138572D01*
X239002Y138724D01*
X239058Y138863D01*
X239100Y138988D01*
X239127Y139085D01*
X239169Y139168D01*
X239197Y139238D01*
X239210Y139293D01*
X239238Y139376D01*
X239252Y139418D01*
X239266Y139432D01*
X239363Y139640D01*
X239446Y139834D01*
X239529Y140000D01*
X239613Y140139D01*
X239682Y140264D01*
X239737Y140347D01*
X239765Y140402D01*
X239779Y140416D01*
X239834Y140500D01*
X239862Y140569D01*
X239918Y140708D01*
Y140749D01*
X239932Y140791D01*
Y140832D01*
X239918Y140943D01*
X239890Y141040D01*
X239862Y141124D01*
X239821Y141207D01*
X239765Y141262D01*
X239737Y141304D01*
X239710Y141332D01*
X239696Y141346D01*
X239613Y141415D01*
X239515Y141470D01*
X239432Y141498D01*
X239349Y141526D01*
X239280Y141540D01*
X239224Y141554D01*
D02*
G37*
G36*
X224732Y65645D02*
X224482D01*
X224330Y65617D01*
X224038Y65548D01*
X223761Y65451D01*
X223539Y65340D01*
X223345Y65215D01*
X223192Y65118D01*
X223137Y65076D01*
X223095Y65048D01*
X223081Y65035D01*
X223068Y65021D01*
X222693Y64674D01*
X222360Y64300D01*
X222069Y63911D01*
X221819Y63551D01*
X221722Y63384D01*
X221625Y63232D01*
X221542Y63093D01*
X221487Y62968D01*
X221431Y62871D01*
X221390Y62802D01*
X221376Y62746D01*
X221362Y62733D01*
X221251Y62469D01*
X221154Y62206D01*
X220987Y61706D01*
X220876Y61235D01*
X220821Y61027D01*
X220793Y60819D01*
X220765Y60638D01*
X220752Y60472D01*
X220724Y60333D01*
Y60208D01*
X220710Y60111D01*
Y59973D01*
X220724Y59709D01*
X220738Y59460D01*
X220779Y59224D01*
X220821Y59002D01*
X220876Y58808D01*
X220932Y58627D01*
X220987Y58461D01*
X221057Y58322D01*
X221126Y58184D01*
X221182Y58073D01*
X221237Y57990D01*
X221292Y57906D01*
X221334Y57851D01*
X221376Y57809D01*
X221390Y57781D01*
X221403Y57768D01*
X221542Y57643D01*
X221695Y57532D01*
X221861Y57421D01*
X222027Y57338D01*
X222374Y57213D01*
X222707Y57130D01*
X222873Y57088D01*
X223012Y57074D01*
X223151Y57060D01*
X223262Y57046D01*
X223359Y57033D01*
X223498D01*
X223775Y57046D01*
X224025Y57074D01*
X224274Y57116D01*
X224524Y57185D01*
X224746Y57254D01*
X224954Y57338D01*
X225148Y57421D01*
X225328Y57504D01*
X225495Y57587D01*
X225633Y57684D01*
X225758Y57754D01*
X225869Y57823D01*
X225952Y57892D01*
X226008Y57934D01*
X226049Y57962D01*
X226063Y57976D01*
X226257Y58156D01*
X226438Y58350D01*
X226604Y58558D01*
X226743Y58752D01*
X226881Y58960D01*
X226992Y59168D01*
X227187Y59570D01*
X227270Y59751D01*
X227339Y59931D01*
X227395Y60084D01*
X227436Y60208D01*
X227464Y60319D01*
X227492Y60403D01*
X227505Y60458D01*
Y60472D01*
X227617Y60555D01*
X227686Y60652D01*
X227741Y60749D01*
X227783Y60846D01*
X227811Y60930D01*
X227824Y60999D01*
Y61054D01*
X227811Y61165D01*
X227797Y61262D01*
X227755Y61346D01*
X227714Y61429D01*
X227672Y61484D01*
X227644Y61526D01*
X227617Y61554D01*
X227603Y61568D01*
X227519Y61637D01*
X227436Y61692D01*
X227339Y61720D01*
X227256Y61748D01*
X227187Y61762D01*
X227131Y61775D01*
X227076D01*
X226562Y61762D01*
X226077Y61748D01*
X225869Y61734D01*
X225661Y61720D01*
X225467Y61706D01*
X225287Y61692D01*
X225134Y61665D01*
X224995Y61651D01*
X224870Y61637D01*
X224773Y61623D01*
X224690Y61609D01*
X224635D01*
X224593Y61595D01*
X224579D01*
X224246Y61526D01*
X223955Y61457D01*
X223706Y61373D01*
X223484Y61290D01*
X223303Y61193D01*
X223151Y61096D01*
X223026Y61013D01*
X222929Y60916D01*
X222846Y60833D01*
X222790Y60749D01*
X222749Y60666D01*
X222721Y60597D01*
X222707Y60555D01*
X222693Y60514D01*
Y60486D01*
Y60472D01*
X222707Y60375D01*
X222721Y60292D01*
X222790Y60139D01*
X222818Y60084D01*
X222846Y60042D01*
X222860Y60014D01*
X222873Y60000D01*
X222957Y59917D01*
X223054Y59862D01*
X223137Y59806D01*
X223234Y59778D01*
X223303Y59765D01*
X223359Y59751D01*
X223414D01*
X223539Y59765D01*
X223650Y59792D01*
X223719Y59820D01*
X223733Y59834D01*
X223747D01*
X224094Y59973D01*
X224454Y60070D01*
X224815Y60153D01*
X225148Y60222D01*
X225300Y60250D01*
X225439Y60264D01*
X225564Y60292D01*
X225661Y60306D01*
X225744D01*
X225814Y60319D01*
X225869D01*
X225730Y59987D01*
X225592Y59709D01*
X225425Y59460D01*
X225273Y59265D01*
X225134Y59113D01*
X225023Y59002D01*
X224940Y58932D01*
X224926Y58905D01*
X224912D01*
X224676Y58752D01*
X224441Y58655D01*
X224191Y58572D01*
X223983Y58517D01*
X223789Y58489D01*
X223636Y58475D01*
X223581Y58461D01*
X223498D01*
X223234Y58475D01*
X223012Y58517D01*
X222818Y58558D01*
X222679Y58627D01*
X222568Y58683D01*
X222499Y58724D01*
X222457Y58766D01*
X222444Y58780D01*
X222360Y58919D01*
X222305Y59099D01*
X222249Y59293D01*
X222222Y59501D01*
X222208Y59681D01*
X222194Y59834D01*
Y59889D01*
Y59931D01*
Y59959D01*
Y59973D01*
X222208Y60292D01*
X222249Y60611D01*
X222305Y60916D01*
X222374Y61207D01*
X222471Y61484D01*
X222568Y61748D01*
X222665Y61997D01*
X222776Y62233D01*
X222887Y62441D01*
X222984Y62635D01*
X223095Y62788D01*
X223179Y62927D01*
X223248Y63038D01*
X223303Y63121D01*
X223345Y63176D01*
X223359Y63190D01*
X223511Y63370D01*
X223650Y63523D01*
X223775Y63662D01*
X223900Y63787D01*
X224011Y63884D01*
X224122Y63967D01*
X224219Y64036D01*
X224302Y64092D01*
X224441Y64161D01*
X224552Y64202D01*
X224607Y64216D01*
X224635D01*
X224801Y64202D01*
X224968Y64175D01*
X225134Y64119D01*
X225287Y64064D01*
X225411Y64008D01*
X225522Y63953D01*
X225578Y63925D01*
X225606Y63911D01*
X225786Y63814D01*
X225938Y63745D01*
X226063Y63689D01*
X226160Y63662D01*
X226230Y63634D01*
X226285Y63620D01*
X226313D01*
X226424Y63634D01*
X226521Y63662D01*
X226618Y63689D01*
X226687Y63731D01*
X226757Y63773D01*
X226798Y63814D01*
X226826Y63828D01*
X226840Y63842D01*
X226909Y63925D01*
X226965Y64008D01*
X227006Y64092D01*
X227034Y64175D01*
X227048Y64244D01*
X227062Y64300D01*
Y64327D01*
Y64341D01*
X227048Y64438D01*
X227020Y64521D01*
X226965Y64619D01*
X226895Y64702D01*
X226729Y64854D01*
X226549Y64993D01*
X226354Y65104D01*
X226188Y65201D01*
X226119Y65229D01*
X226063Y65257D01*
X226035Y65270D01*
X226022D01*
X225703Y65395D01*
X225425Y65492D01*
X225189Y65548D01*
X224995Y65603D01*
X224843Y65631D01*
X224732Y65645D01*
D02*
G37*
G36*
X229142Y65534D02*
X229128D01*
X229003Y65520D01*
X228892Y65492D01*
X228781Y65451D01*
X228698Y65409D01*
X228615Y65367D01*
X228559Y65326D01*
X228532Y65298D01*
X228518Y65284D01*
X228435Y65187D01*
X228365Y65090D01*
X228324Y64993D01*
X228282Y64910D01*
X228268Y64827D01*
X228254Y64771D01*
Y64591D01*
X228268Y64438D01*
Y64286D01*
X228282Y64133D01*
X228296Y63994D01*
Y63884D01*
X228310Y63800D01*
Y63787D01*
Y63773D01*
X228324Y63551D01*
X228338Y63370D01*
X228351Y63204D01*
X228365Y63079D01*
Y62968D01*
Y62899D01*
Y62857D01*
Y62843D01*
Y62705D01*
Y62552D01*
Y62386D01*
X228379Y62219D01*
Y62067D01*
Y61956D01*
Y61873D01*
Y61859D01*
Y61845D01*
X228393Y61609D01*
Y61415D01*
X228407Y61235D01*
Y61096D01*
Y60985D01*
Y60916D01*
Y60860D01*
Y60846D01*
Y60722D01*
Y60569D01*
X228393Y60416D01*
Y60264D01*
Y60125D01*
X228379Y60014D01*
Y59945D01*
Y59931D01*
Y59917D01*
Y59695D01*
X228365Y59515D01*
Y59349D01*
Y59224D01*
Y59113D01*
Y59043D01*
Y59002D01*
Y58988D01*
Y58905D01*
Y58808D01*
X228351Y58586D01*
Y58503D01*
X228338Y58419D01*
Y58364D01*
Y58350D01*
X228324Y58197D01*
Y58073D01*
Y57962D01*
X228310Y57865D01*
Y57795D01*
Y57754D01*
Y57726D01*
Y57712D01*
X228324Y57601D01*
X228338Y57518D01*
X228407Y57365D01*
X228449Y57310D01*
X228476Y57268D01*
X228490Y57241D01*
X228504Y57227D01*
X228601Y57144D01*
X228698Y57088D01*
X228795Y57033D01*
X228892Y57005D01*
X228976Y56991D01*
X229045Y56977D01*
X229114D01*
X229253Y56991D01*
X229364Y57046D01*
X229461Y57116D01*
X229544Y57213D01*
X229613Y57338D01*
X229683Y57463D01*
X229766Y57754D01*
X229821Y58031D01*
X229835Y58156D01*
X229849Y58281D01*
X229863Y58378D01*
Y58447D01*
Y58503D01*
Y58517D01*
Y58697D01*
Y58891D01*
X229849Y59099D01*
Y59293D01*
Y59473D01*
X229835Y59626D01*
Y59681D01*
Y59723D01*
Y59751D01*
Y59765D01*
Y60056D01*
X229821Y60306D01*
Y60527D01*
Y60708D01*
Y60833D01*
Y60930D01*
Y60999D01*
Y61013D01*
Y61082D01*
Y61179D01*
Y61290D01*
X229835Y61415D01*
Y61679D01*
X229849Y61970D01*
Y62247D01*
Y62372D01*
X229863Y62469D01*
Y62566D01*
Y62635D01*
Y62677D01*
Y62691D01*
X230335Y62094D01*
X230779Y61526D01*
X231222Y60999D01*
X231638Y60500D01*
X232041Y60042D01*
X232415Y59626D01*
X232762Y59251D01*
X233081Y58905D01*
X233372Y58600D01*
X233635Y58322D01*
X233871Y58100D01*
X234051Y57906D01*
X234204Y57768D01*
X234315Y57657D01*
X234384Y57601D01*
X234412Y57573D01*
X234578Y57435D01*
X234731Y57338D01*
X234883Y57268D01*
X234994Y57227D01*
X235105Y57199D01*
X235175Y57171D01*
X235244D01*
X235355Y57185D01*
X235466Y57199D01*
X235632Y57282D01*
X235771Y57379D01*
X235868Y57504D01*
X235938Y57629D01*
X235979Y57740D01*
X236007Y57809D01*
Y57823D01*
Y57837D01*
X236035Y58031D01*
X236062Y58211D01*
X236076Y58350D01*
Y58461D01*
X236090Y58558D01*
Y58614D01*
Y58655D01*
Y58669D01*
Y58808D01*
Y59002D01*
Y59224D01*
X236104Y59460D01*
Y59723D01*
Y60000D01*
X236118Y60569D01*
Y60846D01*
Y61110D01*
Y61346D01*
X236132Y61554D01*
Y63051D01*
X236118Y63287D01*
Y63495D01*
X236090Y63689D01*
X236048Y64050D01*
X236007Y64341D01*
X235938Y64605D01*
X235868Y64813D01*
X235785Y64993D01*
X235716Y65132D01*
X235632Y65243D01*
X235549Y65326D01*
X235480Y65381D01*
X235424Y65423D01*
X235369Y65451D01*
X235327Y65465D01*
X235286D01*
X235147Y65451D01*
X235036Y65437D01*
X234939Y65395D01*
X234842Y65354D01*
X234703Y65229D01*
X234620Y65104D01*
X234564Y64965D01*
X234537Y64840D01*
X234523Y64757D01*
Y64743D01*
Y64729D01*
Y64646D01*
X234537Y64549D01*
X234551Y64369D01*
Y64286D01*
X234564Y64216D01*
Y64175D01*
Y64161D01*
X234578Y64022D01*
X234606Y63897D01*
Y63800D01*
X234620Y63717D01*
X234634Y63662D01*
Y63620D01*
Y63606D01*
Y63592D01*
X234648Y63398D01*
Y63190D01*
X234662Y62941D01*
Y62663D01*
X234676Y62386D01*
Y62094D01*
X234689Y61512D01*
Y61235D01*
Y60971D01*
Y60722D01*
Y60514D01*
Y60347D01*
Y60208D01*
Y60125D01*
Y60111D01*
Y60097D01*
Y59889D01*
Y59709D01*
Y59570D01*
Y59473D01*
Y59390D01*
Y59349D01*
Y59321D01*
Y59307D01*
X234259Y59723D01*
X233829Y60167D01*
X233400Y60624D01*
X232983Y61082D01*
X232568Y61540D01*
X232179Y62011D01*
X231819Y62455D01*
X231472Y62885D01*
X231153Y63287D01*
X230862Y63662D01*
X230612Y63994D01*
X230404Y64286D01*
X230307Y64411D01*
X230224Y64521D01*
X230154Y64619D01*
X230099Y64702D01*
X230043Y64771D01*
X230016Y64813D01*
X230002Y64840D01*
X229988Y64854D01*
X229905Y64979D01*
X229821Y65076D01*
X229738Y65173D01*
X229655Y65243D01*
X229503Y65367D01*
X229378Y65451D01*
X229281Y65492D01*
X229198Y65520D01*
X229142Y65534D01*
D02*
G37*
G36*
X238253Y65562D02*
X238212D01*
X238101Y65548D01*
X237990Y65520D01*
X237893Y65465D01*
X237810Y65423D01*
X237740Y65367D01*
X237685Y65312D01*
X237643Y65284D01*
X237629Y65270D01*
X237532Y65159D01*
X237463Y65062D01*
X237421Y64965D01*
X237394Y64868D01*
X237366Y64799D01*
X237352Y64743D01*
Y64702D01*
Y64688D01*
Y64452D01*
Y64175D01*
Y63884D01*
X237366Y63592D01*
Y63343D01*
Y63232D01*
Y63135D01*
Y63051D01*
Y62996D01*
Y62954D01*
Y62941D01*
X237380Y62538D01*
Y62178D01*
X237394Y61887D01*
Y61637D01*
Y61457D01*
Y61318D01*
Y61235D01*
Y61207D01*
Y60985D01*
X237380Y60735D01*
Y60472D01*
X237366Y60222D01*
X237352Y59987D01*
Y59889D01*
Y59806D01*
X237338Y59723D01*
Y59668D01*
Y59640D01*
Y59626D01*
X237324Y59251D01*
X237311Y58932D01*
Y58669D01*
X237297Y58447D01*
Y58059D01*
X237311Y57948D01*
X237324Y57851D01*
X237366Y57768D01*
X237408Y57698D01*
X237435Y57643D01*
X237477Y57601D01*
X237491Y57573D01*
X237505Y57559D01*
X237588Y57490D01*
X237671Y57449D01*
X237838Y57379D01*
X237907Y57365D01*
X237962Y57351D01*
X238018D01*
X238156Y57268D01*
X238309Y57199D01*
X238475Y57144D01*
X238628Y57088D01*
X238767Y57046D01*
X238878Y57019D01*
X238947Y56991D01*
X238975D01*
X239155Y56949D01*
X239321Y56922D01*
X239474Y56908D01*
X239599Y56894D01*
X239710Y56880D01*
X240140D01*
X240403Y56908D01*
X240667Y56936D01*
X240902Y56963D01*
X241124Y57005D01*
X241318Y57060D01*
X241499Y57102D01*
X241665Y57157D01*
X241818Y57213D01*
X241943Y57254D01*
X242054Y57310D01*
X242137Y57351D01*
X242206Y57379D01*
X242262Y57407D01*
X242289Y57435D01*
X242303D01*
X242581Y57643D01*
X242816Y57865D01*
X243024Y58087D01*
X243204Y58295D01*
X243343Y58489D01*
X243440Y58641D01*
X243482Y58697D01*
X243510Y58738D01*
X243524Y58766D01*
Y58780D01*
X243676Y59085D01*
X243787Y59390D01*
X243870Y59681D01*
X243926Y59945D01*
X243953Y60167D01*
X243967Y60264D01*
X243981Y60347D01*
Y60500D01*
X243967Y60777D01*
X243926Y61054D01*
X243856Y61318D01*
X243773Y61568D01*
X243676Y61803D01*
X243565Y62039D01*
X243454Y62247D01*
X243329Y62441D01*
X243204Y62621D01*
X243094Y62774D01*
X242983Y62913D01*
X242886Y63024D01*
X242802Y63121D01*
X242733Y63190D01*
X242691Y63232D01*
X242677Y63246D01*
X242262Y63620D01*
X241818Y63939D01*
X241374Y64202D01*
X240958Y64424D01*
X240778Y64508D01*
X240597Y64591D01*
X240445Y64646D01*
X240320Y64702D01*
X240209Y64743D01*
X240126Y64771D01*
X240070Y64799D01*
X240056D01*
X240015Y64813D01*
X239973Y64827D01*
X239834Y64882D01*
X239682Y64951D01*
X239515Y65035D01*
X239349Y65104D01*
X239210Y65173D01*
X239169Y65187D01*
X239127Y65215D01*
X239100Y65229D01*
X239086D01*
X238850Y65340D01*
X238656Y65423D01*
X238503Y65478D01*
X238392Y65520D01*
X238309Y65548D01*
X238253Y65562D01*
D02*
G37*
%LPD*%
G36*
X239100Y63620D02*
X239363Y63509D01*
X239613Y63398D01*
X239834Y63301D01*
X240042Y63204D01*
X240209Y63121D01*
X240375Y63051D01*
X240514Y62982D01*
X240625Y62927D01*
X240722Y62871D01*
X240805Y62829D01*
X240861Y62788D01*
X240916Y62760D01*
X240944Y62746D01*
X240972Y62733D01*
X241235Y62552D01*
X241471Y62372D01*
X241679Y62178D01*
X241859Y61984D01*
X241998Y61789D01*
X242123Y61609D01*
X242220Y61429D01*
X242303Y61262D01*
X242372Y61096D01*
X242414Y60943D01*
X242456Y60819D01*
X242470Y60708D01*
X242483Y60611D01*
X242497Y60541D01*
Y60500D01*
Y60486D01*
X242483Y60278D01*
X242456Y60084D01*
X242414Y59903D01*
X242359Y59751D01*
X242303Y59612D01*
X242262Y59501D01*
X242234Y59446D01*
X242220Y59418D01*
X242109Y59238D01*
X241984Y59071D01*
X241859Y58932D01*
X241748Y58822D01*
X241637Y58724D01*
X241554Y58655D01*
X241499Y58614D01*
X241471Y58600D01*
X241374Y58544D01*
X241263Y58503D01*
X241013Y58419D01*
X240750Y58364D01*
X240473Y58336D01*
X240237Y58308D01*
X240126D01*
X240029Y58295D01*
X239848D01*
X239613Y58308D01*
X239515D01*
X239432Y58322D01*
X239349Y58336D01*
X239294D01*
X239266Y58350D01*
X239252D01*
X239072Y58405D01*
X238919Y58475D01*
X238864Y58503D01*
X238836Y58530D01*
X238808Y58544D01*
X238794D01*
Y63745D01*
X239100Y63620D01*
D02*
G37*
%LPC*%
G36*
X239696Y90712D02*
X239640D01*
X239571Y90698D01*
X239474Y90656D01*
X239377Y90601D01*
X239266Y90518D01*
X239155Y90421D01*
X239044Y90310D01*
X238808Y90088D01*
X238600Y89852D01*
X238503Y89741D01*
X238420Y89644D01*
X238351Y89561D01*
X238295Y89505D01*
X238267Y89464D01*
X238253Y89450D01*
X238004Y89131D01*
X237768Y88812D01*
X237546Y88507D01*
X237338Y88243D01*
X237172Y88021D01*
X237102Y87938D01*
X237033Y87855D01*
X236992Y87786D01*
X236950Y87744D01*
X236936Y87716D01*
X236922Y87703D01*
X236575Y88132D01*
X236409Y88327D01*
X236257Y88507D01*
X236132Y88659D01*
X236035Y88770D01*
X235979Y88840D01*
X235951Y88868D01*
X235799Y89062D01*
X235660Y89228D01*
X235549Y89381D01*
X235452Y89505D01*
X235383Y89589D01*
X235327Y89658D01*
X235300Y89700D01*
X235286Y89713D01*
X235105Y89935D01*
X235008Y90032D01*
X234925Y90129D01*
X234842Y90199D01*
X234786Y90254D01*
X234745Y90296D01*
X234731Y90310D01*
X234564Y90449D01*
X234412Y90546D01*
X234287Y90615D01*
X234176Y90656D01*
X234093Y90698D01*
X234037Y90712D01*
X233982D01*
X233871Y90698D01*
X233760Y90670D01*
X233677Y90643D01*
X233594Y90601D01*
X233538Y90546D01*
X233497Y90518D01*
X233469Y90490D01*
X233455Y90476D01*
X233386Y90393D01*
X233330Y90310D01*
X233302Y90227D01*
X233275Y90143D01*
X233261Y90074D01*
X233247Y90019D01*
Y89991D01*
Y89977D01*
X233261Y89866D01*
X233289Y89755D01*
X233344Y89658D01*
X233400Y89575D01*
X233441Y89505D01*
X233497Y89450D01*
X233524Y89422D01*
X233538Y89408D01*
X233649Y89311D01*
X233774Y89200D01*
X233885Y89089D01*
X233982Y88978D01*
X234079Y88868D01*
X234149Y88784D01*
X234190Y88729D01*
X234204Y88715D01*
X234301Y88590D01*
X234384Y88479D01*
X234537Y88285D01*
X234648Y88146D01*
X234717Y88063D01*
X234773Y87994D01*
X234800Y87952D01*
X234814Y87938D01*
X235036Y87689D01*
X235230Y87453D01*
X235424Y87217D01*
X235591Y87023D01*
X235730Y86843D01*
X235827Y86704D01*
X235868Y86662D01*
X235896Y86621D01*
X235924Y86607D01*
Y86593D01*
X235508Y86135D01*
X235327Y85927D01*
X235147Y85719D01*
X234981Y85539D01*
X234828Y85373D01*
X234689Y85220D01*
X234564Y85081D01*
X234454Y84957D01*
X234356Y84860D01*
X234273Y84762D01*
X234204Y84693D01*
X234149Y84638D01*
X234107Y84582D01*
X234093Y84568D01*
X234079Y84554D01*
X233857Y84319D01*
X233663Y84111D01*
X233497Y83930D01*
X233358Y83792D01*
X233261Y83681D01*
X233178Y83611D01*
X233136Y83556D01*
X233122Y83542D01*
X233067Y83459D01*
X233025Y83376D01*
X232970Y83223D01*
X232956Y83168D01*
X232942Y83112D01*
Y83070D01*
X232956Y82959D01*
X232983Y82876D01*
X233053Y82710D01*
X233095Y82654D01*
X233136Y82613D01*
X233150Y82585D01*
X233164Y82571D01*
X233247Y82502D01*
X233344Y82446D01*
X233427Y82419D01*
X233510Y82391D01*
X233580Y82377D01*
X233635Y82363D01*
X233691D01*
X233802Y82377D01*
X233899Y82405D01*
X233996Y82433D01*
X234079Y82474D01*
X234135Y82516D01*
X234190Y82557D01*
X234218Y82571D01*
X234232Y82585D01*
X234468Y82821D01*
X234662Y83029D01*
X234828Y83209D01*
X234967Y83348D01*
X235064Y83473D01*
X235147Y83542D01*
X235189Y83597D01*
X235203Y83611D01*
X235549Y84000D01*
X235868Y84346D01*
X236159Y84651D01*
X236395Y84915D01*
X236575Y85123D01*
X236659Y85206D01*
X236728Y85289D01*
X236770Y85345D01*
X236811Y85386D01*
X236825Y85400D01*
X236839Y85414D01*
X236992Y85206D01*
X237130Y85012D01*
X237241Y84860D01*
X237338Y84735D01*
X237408Y84624D01*
X237463Y84554D01*
X237491Y84513D01*
X237505Y84499D01*
X237671Y84263D01*
X237810Y84055D01*
X237935Y83875D01*
X238032Y83736D01*
X238101Y83625D01*
X238156Y83542D01*
X238184Y83486D01*
X238198Y83473D01*
X238351Y83265D01*
X238503Y83084D01*
X238642Y82918D01*
X238767Y82779D01*
X238892Y82668D01*
X239002Y82571D01*
X239100Y82488D01*
X239197Y82433D01*
X239280Y82377D01*
X239349Y82349D01*
X239460Y82294D01*
X239529Y82280D01*
X239557D01*
X239668Y82294D01*
X239765Y82322D01*
X239862Y82349D01*
X239932Y82391D01*
X240001Y82433D01*
X240042Y82474D01*
X240070Y82488D01*
X240084Y82502D01*
X240167Y82585D01*
X240223Y82668D01*
X240264Y82752D01*
X240292Y82835D01*
X240306Y82904D01*
X240320Y82959D01*
Y82987D01*
Y83001D01*
X240306Y83098D01*
X240292Y83181D01*
X240223Y83334D01*
X240181Y83390D01*
X240140Y83431D01*
X240126Y83459D01*
X240112Y83473D01*
X239918Y83708D01*
X239710Y83944D01*
X239515Y84194D01*
X239335Y84430D01*
X239183Y84638D01*
X239113Y84735D01*
X239058Y84804D01*
X239016Y84873D01*
X238975Y84915D01*
X238961Y84943D01*
X238947Y84957D01*
X238739Y85248D01*
X238545Y85525D01*
X238351Y85789D01*
X238184Y86025D01*
X238046Y86219D01*
X237935Y86371D01*
X237893Y86427D01*
X237865Y86468D01*
X237838Y86482D01*
Y86496D01*
X238143Y86884D01*
X238420Y87231D01*
X238642Y87522D01*
X238822Y87758D01*
X238947Y87952D01*
X239058Y88077D01*
X239113Y88160D01*
X239127Y88188D01*
X239280Y88396D01*
X239446Y88618D01*
X239627Y88854D01*
X239807Y89062D01*
X239959Y89242D01*
X240084Y89395D01*
X240126Y89450D01*
X240167Y89492D01*
X240181Y89505D01*
X240195Y89519D01*
X240264Y89602D01*
X240320Y89686D01*
X240348Y89769D01*
X240375Y89838D01*
X240389Y89894D01*
X240403Y89949D01*
Y89991D01*
X240389Y90102D01*
X240361Y90199D01*
X240292Y90351D01*
X240237Y90407D01*
X240209Y90449D01*
X240181Y90476D01*
X240167Y90490D01*
X240084Y90559D01*
X239987Y90615D01*
X239904Y90656D01*
X239821Y90684D01*
X239751Y90698D01*
X239696Y90712D01*
D02*
G37*
G36*
X223664Y88299D02*
X223539D01*
X223456Y88271D01*
X223317Y88216D01*
X223262Y88188D01*
X223220Y88160D01*
X223192Y88146D01*
X223179Y88132D01*
X223137Y88105D01*
X223095Y88063D01*
X222957Y87938D01*
X222804Y87800D01*
X222638Y87647D01*
X222485Y87494D01*
X222346Y87370D01*
X222291Y87314D01*
X222263Y87273D01*
X222236Y87259D01*
X222222Y87245D01*
X222014Y87051D01*
X221819Y86898D01*
X221639Y86760D01*
X221487Y86662D01*
X221362Y86579D01*
X221265Y86524D01*
X221209Y86496D01*
X221182Y86482D01*
X221029Y86399D01*
X220904Y86302D01*
X220821Y86205D01*
X220765Y86122D01*
X220738Y86038D01*
X220724Y85969D01*
X220710Y85927D01*
Y85913D01*
X220738Y85775D01*
X220793Y85650D01*
X220876Y85553D01*
X220973Y85470D01*
X221071Y85414D01*
X221154Y85373D01*
X221209Y85345D01*
X221237Y85331D01*
X221403Y85262D01*
X221570Y85165D01*
X221722Y85068D01*
X221875Y84957D01*
X221986Y84860D01*
X222083Y84776D01*
X222138Y84721D01*
X222166Y84707D01*
X222776Y84111D01*
X222929Y83986D01*
X223081Y83903D01*
X223206Y83833D01*
X223317Y83792D01*
X223400Y83764D01*
X223456Y83750D01*
X223511D01*
X223608Y83764D01*
X223706Y83778D01*
X223858Y83847D01*
X223914Y83875D01*
X223955Y83903D01*
X223983Y83917D01*
X223997Y83930D01*
X224066Y84000D01*
X224122Y84083D01*
X224149Y84152D01*
X224177Y84222D01*
X224191Y84291D01*
X224205Y84333D01*
Y84360D01*
Y84374D01*
X224191Y84471D01*
X224163Y84554D01*
X224080Y84707D01*
X224025Y84762D01*
X223983Y84804D01*
X223955Y84832D01*
X223941Y84846D01*
X223650Y85095D01*
X223400Y85317D01*
X223192Y85511D01*
X223026Y85678D01*
X222887Y85789D01*
X222790Y85886D01*
X222735Y85941D01*
X222721Y85955D01*
X223054Y86246D01*
X223331Y86496D01*
X223567Y86718D01*
X223761Y86898D01*
X223900Y87037D01*
X224011Y87134D01*
X224080Y87203D01*
X224094Y87217D01*
X224163Y87287D01*
X224219Y87370D01*
X224260Y87439D01*
X224288Y87508D01*
X224302Y87578D01*
X224316Y87619D01*
Y87661D01*
X224302Y87758D01*
X224288Y87841D01*
X224219Y87980D01*
X224177Y88035D01*
X224135Y88077D01*
X224122Y88091D01*
X224108Y88105D01*
X224025Y88174D01*
X223941Y88216D01*
X223789Y88271D01*
X223719Y88285D01*
X223664Y88299D01*
D02*
G37*
G36*
X227519Y90781D02*
X227297D01*
X227145Y90740D01*
X227020Y90684D01*
X226909Y90629D01*
X226826Y90559D01*
X226770Y90504D01*
X226729Y90462D01*
X226715Y90449D01*
X226646Y90337D01*
X226604Y90240D01*
X226549Y90046D01*
X226535Y89963D01*
X226521Y89894D01*
Y89852D01*
Y89838D01*
X226507Y85608D01*
Y85442D01*
Y85248D01*
Y85054D01*
Y84860D01*
X226493Y84693D01*
Y83251D01*
X226507Y83140D01*
X226521Y83043D01*
X226562Y82959D01*
X226604Y82876D01*
X226632Y82821D01*
X226673Y82779D01*
X226687Y82752D01*
X226701Y82738D01*
X226784Y82668D01*
X226868Y82627D01*
X227048Y82571D01*
X227117Y82557D01*
X227173Y82543D01*
X227228D01*
X227339Y82557D01*
X227436Y82571D01*
X227519Y82599D01*
X227603Y82641D01*
X227658Y82682D01*
X227700Y82710D01*
X227727Y82724D01*
X227741Y82738D01*
X227811Y82821D01*
X227866Y82904D01*
X227908Y82987D01*
X227935Y83070D01*
X227949Y83140D01*
X227963Y83195D01*
Y83237D01*
Y83251D01*
Y83292D01*
Y83376D01*
Y83473D01*
X227949Y83584D01*
Y83722D01*
Y83861D01*
X227935Y84166D01*
X227922Y84457D01*
Y84596D01*
Y84721D01*
X227908Y84818D01*
Y84887D01*
Y84943D01*
Y84957D01*
X228254Y84832D01*
X228601Y84707D01*
X228934Y84554D01*
X229253Y84388D01*
X229558Y84222D01*
X229849Y84041D01*
X230113Y83875D01*
X230362Y83695D01*
X230584Y83528D01*
X230792Y83376D01*
X230959Y83237D01*
X231111Y83126D01*
X231236Y83015D01*
X231319Y82946D01*
X231375Y82890D01*
X231389Y82876D01*
X231486Y82807D01*
X231569Y82752D01*
X231666Y82724D01*
X231735Y82696D01*
X231805Y82682D01*
X231860Y82668D01*
X231916D01*
X232027Y82682D01*
X232124Y82696D01*
X232221Y82738D01*
X232290Y82779D01*
X232360Y82807D01*
X232401Y82849D01*
X232429Y82863D01*
X232443Y82876D01*
X232512Y82959D01*
X232568Y83043D01*
X232609Y83126D01*
X232637Y83209D01*
X232651Y83279D01*
X232665Y83334D01*
Y83376D01*
X232651Y83473D01*
X232637Y83556D01*
X232568Y83708D01*
X232526Y83764D01*
X232498Y83806D01*
X232484Y83833D01*
X232470Y83847D01*
X232332Y84000D01*
X232179Y84152D01*
X231846Y84430D01*
X231500Y84707D01*
X231153Y84943D01*
X231000Y85040D01*
X230848Y85137D01*
X230723Y85220D01*
X230598Y85289D01*
X230515Y85345D01*
X230432Y85400D01*
X230390Y85414D01*
X230376Y85428D01*
X230709Y85567D01*
X231000Y85719D01*
X231236Y85872D01*
X231444Y86011D01*
X231597Y86135D01*
X231708Y86233D01*
X231763Y86288D01*
X231791Y86316D01*
X231943Y86524D01*
X232068Y86732D01*
X232151Y86940D01*
X232207Y87120D01*
X232235Y87287D01*
X232262Y87425D01*
Y87508D01*
Y87522D01*
Y87536D01*
X232235Y87841D01*
X232165Y88132D01*
X232054Y88410D01*
X231916Y88673D01*
X231735Y88923D01*
X231555Y89145D01*
X231347Y89367D01*
X231139Y89561D01*
X230931Y89727D01*
X230723Y89880D01*
X230543Y90019D01*
X230362Y90129D01*
X230224Y90213D01*
X230113Y90268D01*
X230043Y90310D01*
X230016Y90324D01*
X229821Y90421D01*
X229600Y90490D01*
X229392Y90546D01*
X229198Y90601D01*
X229031Y90629D01*
X228892Y90656D01*
X228837D01*
X228795Y90670D01*
X228754D01*
X228698Y90684D01*
X228643D01*
X228559Y90698D01*
X228449D01*
X228338Y90712D01*
X228102Y90726D01*
X227866Y90754D01*
X227755D01*
X227658Y90767D01*
X227589D01*
X227519Y90781D01*
D02*
G37*
%LPD*%
G36*
X228130Y89284D02*
X228268Y89270D01*
X228379Y89256D01*
X228504D01*
X228532Y89242D01*
X228546D01*
X228837Y89200D01*
X229114Y89117D01*
X229364Y89034D01*
X229586Y88923D01*
X229780Y88826D01*
X229919Y88743D01*
X229974Y88701D01*
X230016Y88687D01*
X230030Y88659D01*
X230043D01*
X230182Y88562D01*
X230293Y88451D01*
X230390Y88354D01*
X230473Y88257D01*
X230612Y88063D01*
X230695Y87897D01*
X230751Y87744D01*
X230779Y87633D01*
X230792Y87564D01*
Y87536D01*
X230779Y87481D01*
X230751Y87425D01*
X230681Y87314D01*
X230598Y87231D01*
X230570Y87203D01*
X230557Y87189D01*
X230390Y87037D01*
X230238Y86926D01*
X230168Y86884D01*
X230113Y86857D01*
X230085Y86829D01*
X230071D01*
X229946Y86773D01*
X229808Y86718D01*
X229503Y86649D01*
X229198Y86593D01*
X228878Y86552D01*
X228601Y86524D01*
X228476D01*
X228365Y86510D01*
X228088D01*
X228005Y86524D01*
X227935D01*
Y89297D01*
X228130Y89284D01*
D02*
G37*
%LPC*%
G36*
X221514Y116070D02*
X221348D01*
X221237Y116043D01*
X221126Y116001D01*
X221043Y115959D01*
X220973Y115918D01*
X220932Y115876D01*
X220904Y115849D01*
X220890Y115835D01*
X220835Y115751D01*
X220793Y115668D01*
X220738Y115516D01*
X220724Y115446D01*
X220710Y115391D01*
Y115349D01*
X220738Y115169D01*
X220793Y115016D01*
X220890Y114892D01*
X221001Y114808D01*
X221098Y114739D01*
X221195Y114697D01*
X221251Y114684D01*
X221279Y114670D01*
X221556Y114614D01*
X221861Y114573D01*
X222166Y114545D01*
X222471Y114531D01*
X222735Y114517D01*
X222846Y114503D01*
X223414D01*
Y114392D01*
X223428Y114268D01*
X223442Y113976D01*
X223470Y113671D01*
X223484Y113352D01*
X223511Y113061D01*
X223525Y112922D01*
X223539Y112811D01*
Y112728D01*
X223553Y112645D01*
Y112603D01*
Y112589D01*
X223595Y112160D01*
X223622Y111785D01*
X223636Y111466D01*
X223650Y111327D01*
Y111189D01*
Y111078D01*
X223664Y110981D01*
Y110884D01*
Y110814D01*
Y110759D01*
Y110717D01*
Y110703D01*
Y110689D01*
Y110592D01*
Y110468D01*
X223678Y110232D01*
Y110121D01*
X223692Y110038D01*
Y109982D01*
Y109954D01*
X223706Y109788D01*
X223719Y109635D01*
Y109511D01*
X223733Y109400D01*
Y109330D01*
Y109261D01*
Y109233D01*
Y109219D01*
Y109150D01*
X223719Y109081D01*
X223706Y109025D01*
Y109011D01*
Y108997D01*
X223692Y108900D01*
Y108831D01*
Y108790D01*
Y108776D01*
X223706Y108665D01*
X223733Y108568D01*
X223761Y108470D01*
X223817Y108401D01*
X223858Y108346D01*
X223886Y108304D01*
X223914Y108276D01*
X223927Y108263D01*
X224011Y108207D01*
X224108Y108165D01*
X224274Y108110D01*
X224343Y108096D01*
X224399Y108082D01*
X224441D01*
X224579Y108096D01*
X224704Y108152D01*
X224801Y108207D01*
X224898Y108290D01*
X224954Y108359D01*
X225009Y108429D01*
X225037Y108470D01*
X225051Y108484D01*
X225106Y108609D01*
X225148Y108720D01*
X225176Y108845D01*
X225203Y108956D01*
Y109053D01*
X225217Y109122D01*
Y109178D01*
Y109192D01*
Y109261D01*
Y109344D01*
X225203Y109511D01*
X225189Y109580D01*
Y109649D01*
X225176Y109691D01*
Y109705D01*
X225162Y109830D01*
X225148Y109941D01*
Y110038D01*
X225134Y110107D01*
Y110176D01*
Y110218D01*
Y110232D01*
Y110246D01*
Y110565D01*
X225120Y110911D01*
X225106Y111272D01*
X225092Y111605D01*
X225079Y111771D01*
X225065Y111910D01*
Y112049D01*
X225051Y112160D01*
Y112257D01*
X225037Y112326D01*
Y112367D01*
Y112381D01*
X225009Y112659D01*
X224995Y112908D01*
X224981Y113144D01*
X224968Y113366D01*
X224954Y113546D01*
X224940Y113727D01*
X224926Y113879D01*
Y114018D01*
X224912Y114143D01*
Y114240D01*
Y114323D01*
X224898Y114392D01*
Y114448D01*
Y114489D01*
Y114517D01*
X225079D01*
X225273Y114503D01*
X225495D01*
X225703Y114489D01*
X225883Y114475D01*
X226035D01*
X226091Y114462D01*
X226174D01*
X226479Y114448D01*
X226743Y114434D01*
X226951Y114420D01*
X227131D01*
X227270Y114406D01*
X227450D01*
X227561Y114420D01*
X227672Y114434D01*
X227755Y114475D01*
X227838Y114517D01*
X227894Y114545D01*
X227935Y114586D01*
X227963Y114600D01*
X227977Y114614D01*
X228046Y114697D01*
X228102Y114781D01*
X228144Y114864D01*
X228171Y114947D01*
X228185Y115016D01*
X228199Y115072D01*
Y115113D01*
Y115127D01*
X228185Y115238D01*
X228171Y115335D01*
X228130Y115419D01*
X228088Y115502D01*
X228046Y115557D01*
X228019Y115599D01*
X227991Y115627D01*
X227977Y115640D01*
X227894Y115710D01*
X227811Y115765D01*
X227714Y115793D01*
X227630Y115821D01*
X227561Y115835D01*
X227505Y115849D01*
X227284D01*
X227090Y115862D01*
X226895D01*
X226701Y115876D01*
X226521D01*
X226382Y115890D01*
X226243D01*
X225966Y115904D01*
X225730Y115918D01*
X225522Y115932D01*
X225356Y115946D01*
X224468D01*
X224330Y115932D01*
X223886D01*
X223692Y115918D01*
X223012D01*
X222873Y115932D01*
X222735D01*
X222596Y115946D01*
X222485Y115959D01*
X222388D01*
X222333Y115973D01*
X222305D01*
X222083Y116001D01*
X221903Y116029D01*
X221750Y116043D01*
X221639Y116056D01*
X221570D01*
X221514Y116070D01*
D02*
G37*
G36*
X234939Y116112D02*
X234883D01*
X234814Y116098D01*
X234717Y116056D01*
X234620Y116001D01*
X234509Y115918D01*
X234398Y115821D01*
X234287Y115710D01*
X234051Y115488D01*
X233843Y115252D01*
X233746Y115141D01*
X233663Y115044D01*
X233594Y114961D01*
X233538Y114905D01*
X233510Y114864D01*
X233497Y114850D01*
X233247Y114531D01*
X233011Y114212D01*
X232789Y113907D01*
X232581Y113643D01*
X232415Y113421D01*
X232346Y113338D01*
X232276Y113255D01*
X232235Y113186D01*
X232193Y113144D01*
X232179Y113116D01*
X232165Y113103D01*
X231819Y113532D01*
X231652Y113727D01*
X231500Y113907D01*
X231375Y114059D01*
X231278Y114170D01*
X231222Y114240D01*
X231194Y114268D01*
X231042Y114462D01*
X230903Y114628D01*
X230792Y114781D01*
X230695Y114905D01*
X230626Y114989D01*
X230570Y115058D01*
X230543Y115100D01*
X230529Y115113D01*
X230348Y115335D01*
X230252Y115432D01*
X230168Y115529D01*
X230085Y115599D01*
X230030Y115654D01*
X229988Y115696D01*
X229974Y115710D01*
X229808Y115849D01*
X229655Y115946D01*
X229530Y116015D01*
X229419Y116056D01*
X229336Y116098D01*
X229281Y116112D01*
X229225D01*
X229114Y116098D01*
X229003Y116070D01*
X228920Y116043D01*
X228837Y116001D01*
X228781Y115946D01*
X228740Y115918D01*
X228712Y115890D01*
X228698Y115876D01*
X228629Y115793D01*
X228573Y115710D01*
X228546Y115627D01*
X228518Y115543D01*
X228504Y115474D01*
X228490Y115419D01*
Y115391D01*
Y115377D01*
X228504Y115266D01*
X228532Y115155D01*
X228587Y115058D01*
X228643Y114975D01*
X228684Y114905D01*
X228740Y114850D01*
X228768Y114822D01*
X228781Y114808D01*
X228892Y114711D01*
X229017Y114600D01*
X229128Y114489D01*
X229225Y114378D01*
X229322Y114268D01*
X229392Y114184D01*
X229433Y114129D01*
X229447Y114115D01*
X229544Y113990D01*
X229627Y113879D01*
X229780Y113685D01*
X229891Y113546D01*
X229960Y113463D01*
X230016Y113394D01*
X230043Y113352D01*
X230057Y113338D01*
X230279Y113089D01*
X230473Y112853D01*
X230667Y112617D01*
X230834Y112423D01*
X230973Y112243D01*
X231070Y112104D01*
X231111Y112062D01*
X231139Y112021D01*
X231167Y112007D01*
Y111993D01*
X230751Y111535D01*
X230570Y111327D01*
X230390Y111119D01*
X230224Y110939D01*
X230071Y110773D01*
X229932Y110620D01*
X229808Y110481D01*
X229697Y110357D01*
X229600Y110260D01*
X229516Y110162D01*
X229447Y110093D01*
X229392Y110038D01*
X229350Y109982D01*
X229336Y109968D01*
X229322Y109954D01*
X229100Y109719D01*
X228906Y109511D01*
X228740Y109330D01*
X228601Y109192D01*
X228504Y109081D01*
X228421Y109011D01*
X228379Y108956D01*
X228365Y108942D01*
X228310Y108859D01*
X228268Y108776D01*
X228213Y108623D01*
X228199Y108568D01*
X228185Y108512D01*
Y108484D01*
Y108470D01*
X228199Y108359D01*
X228227Y108276D01*
X228296Y108110D01*
X228338Y108054D01*
X228379Y108013D01*
X228393Y107985D01*
X228407Y107971D01*
X228490Y107902D01*
X228587Y107846D01*
X228671Y107819D01*
X228754Y107791D01*
X228823Y107777D01*
X228878Y107763D01*
X228934D01*
X229045Y107777D01*
X229142Y107805D01*
X229239Y107833D01*
X229322Y107874D01*
X229378Y107916D01*
X229433Y107957D01*
X229461Y107971D01*
X229475Y107985D01*
X229711Y108221D01*
X229905Y108429D01*
X230071Y108609D01*
X230210Y108748D01*
X230307Y108873D01*
X230390Y108942D01*
X230432Y108997D01*
X230446Y109011D01*
X230792Y109400D01*
X231111Y109746D01*
X231402Y110051D01*
X231638Y110315D01*
X231819Y110523D01*
X231902Y110606D01*
X231971Y110689D01*
X232013Y110745D01*
X232054Y110787D01*
X232068Y110800D01*
X232082Y110814D01*
X232235Y110606D01*
X232373Y110412D01*
X232484Y110260D01*
X232581Y110135D01*
X232651Y110024D01*
X232706Y109954D01*
X232734Y109913D01*
X232748Y109899D01*
X232914Y109663D01*
X233053Y109455D01*
X233178Y109275D01*
X233275Y109136D01*
X233344Y109025D01*
X233400Y108942D01*
X233427Y108886D01*
X233441Y108873D01*
X233594Y108665D01*
X233746Y108484D01*
X233885Y108318D01*
X234010Y108179D01*
X234135Y108068D01*
X234246Y107971D01*
X234343Y107888D01*
X234440Y107833D01*
X234523Y107777D01*
X234592Y107749D01*
X234703Y107694D01*
X234773Y107680D01*
X234800D01*
X234911Y107694D01*
X235008Y107722D01*
X235105Y107749D01*
X235175Y107791D01*
X235244Y107833D01*
X235286Y107874D01*
X235313Y107888D01*
X235327Y107902D01*
X235410Y107985D01*
X235466Y108068D01*
X235508Y108152D01*
X235535Y108235D01*
X235549Y108304D01*
X235563Y108359D01*
Y108387D01*
Y108401D01*
X235549Y108498D01*
X235535Y108581D01*
X235466Y108734D01*
X235424Y108790D01*
X235383Y108831D01*
X235369Y108859D01*
X235355Y108873D01*
X235161Y109108D01*
X234953Y109344D01*
X234759Y109594D01*
X234578Y109830D01*
X234426Y110038D01*
X234356Y110135D01*
X234301Y110204D01*
X234259Y110273D01*
X234218Y110315D01*
X234204Y110343D01*
X234190Y110357D01*
X233982Y110648D01*
X233788Y110925D01*
X233594Y111189D01*
X233427Y111425D01*
X233289Y111619D01*
X233178Y111771D01*
X233136Y111827D01*
X233108Y111868D01*
X233081Y111882D01*
Y111896D01*
X233386Y112284D01*
X233663Y112631D01*
X233885Y112922D01*
X234065Y113158D01*
X234190Y113352D01*
X234301Y113477D01*
X234356Y113560D01*
X234370Y113588D01*
X234523Y113796D01*
X234689Y114018D01*
X234870Y114254D01*
X235050Y114462D01*
X235203Y114642D01*
X235327Y114795D01*
X235369Y114850D01*
X235410Y114892D01*
X235424Y114905D01*
X235438Y114919D01*
X235508Y115002D01*
X235563Y115086D01*
X235591Y115169D01*
X235618Y115238D01*
X235632Y115294D01*
X235646Y115349D01*
Y115391D01*
X235632Y115502D01*
X235605Y115599D01*
X235535Y115751D01*
X235480Y115807D01*
X235452Y115849D01*
X235424Y115876D01*
X235410Y115890D01*
X235327Y115959D01*
X235230Y116015D01*
X235147Y116056D01*
X235064Y116084D01*
X234994Y116098D01*
X234939Y116112D01*
D02*
G37*
G36*
X238434Y114032D02*
X238392D01*
X238295Y114018D01*
X238198Y114004D01*
X238046Y113935D01*
X237990Y113893D01*
X237948Y113865D01*
X237921Y113851D01*
X237907Y113838D01*
X237838Y113768D01*
X237782Y113699D01*
X237754Y113616D01*
X237726Y113546D01*
X237713Y113491D01*
X237699Y113435D01*
Y113408D01*
Y113394D01*
X237713Y113338D01*
X237726Y113283D01*
X237810Y113144D01*
X237921Y112978D01*
X238046Y112825D01*
X238170Y112687D01*
X238281Y112576D01*
X238365Y112492D01*
X238378Y112479D01*
X238392Y112465D01*
X238600Y112270D01*
X238808Y112090D01*
X239002Y111938D01*
X239183Y111785D01*
X239335Y111674D01*
X239460Y111577D01*
X239529Y111522D01*
X239557Y111508D01*
X239335Y111355D01*
X239127Y111203D01*
X238947Y111078D01*
X238767Y110953D01*
X238600Y110828D01*
X238448Y110731D01*
X238323Y110634D01*
X238198Y110551D01*
X238087Y110468D01*
X238004Y110412D01*
X237921Y110357D01*
X237851Y110315D01*
X237810Y110273D01*
X237768Y110246D01*
X237754Y110232D01*
X237740D01*
X237643Y110162D01*
X237574Y110079D01*
X237532Y109996D01*
X237505Y109913D01*
X237477Y109844D01*
X237463Y109802D01*
Y109746D01*
X237477Y109649D01*
X237491Y109566D01*
X237560Y109427D01*
X237602Y109372D01*
X237629Y109344D01*
X237643Y109317D01*
X237657Y109303D01*
X237740Y109233D01*
X237810Y109192D01*
X237962Y109136D01*
X238032Y109122D01*
X238087Y109108D01*
X238129D01*
X238267Y109122D01*
X238392Y109164D01*
X238489Y109206D01*
X238503Y109219D01*
X238517D01*
X239030Y109538D01*
X239502Y109857D01*
X239959Y110176D01*
X240154Y110329D01*
X240348Y110468D01*
X240528Y110606D01*
X240681Y110731D01*
X240819Y110842D01*
X240930Y110939D01*
X241027Y111008D01*
X241096Y111078D01*
X241138Y111105D01*
X241152Y111119D01*
X241249Y111203D01*
X241318Y111286D01*
X241360Y111369D01*
X241402Y111452D01*
X241416Y111508D01*
X241429Y111563D01*
Y111605D01*
X241416Y111730D01*
X241360Y111827D01*
X241291Y111924D01*
X241221Y112007D01*
X241138Y112062D01*
X241069Y112104D01*
X241013Y112132D01*
X241000Y112146D01*
X240819Y112243D01*
X240639Y112340D01*
X240278Y112589D01*
X239918Y112867D01*
X239599Y113144D01*
X239446Y113269D01*
X239307Y113394D01*
X239197Y113505D01*
X239086Y113602D01*
X239002Y113685D01*
X238947Y113741D01*
X238905Y113782D01*
X238892Y113796D01*
X238808Y113879D01*
X238725Y113935D01*
X238642Y113976D01*
X238559Y114004D01*
X238489Y114018D01*
X238434Y114032D01*
D02*
G37*
%LPD*%
D10*
X146930Y198230D02*
G03*
X145479Y196996I-1250J0D01*
G01*
X58988Y76384D02*
G03*
X61250Y75650I1012J-734D01*
G01*
D11*
X247850Y45760D02*
X272850D01*
X247850D02*
Y152360D01*
X272850D01*
Y45760D02*
Y152360D01*
X91266Y226481D02*
X99234D01*
X162180Y189724D02*
Y194780D01*
Y177024D02*
Y188736D01*
Y164324D02*
Y176036D01*
Y151624D02*
Y163336D01*
Y138924D02*
Y150636D01*
Y126224D02*
Y137936D01*
Y113524D02*
Y125236D01*
Y100824D02*
Y112536D01*
Y94780D02*
Y99836D01*
Y194780D02*
X166180D01*
X172440Y193040D02*
X174180Y194780D01*
X178180D01*
X166180D02*
X167920Y193040D01*
X178180Y189724D02*
Y194780D01*
Y177024D02*
Y188736D01*
Y164324D02*
Y176036D01*
Y151624D02*
Y163336D01*
Y138924D02*
Y150636D01*
Y126224D02*
Y137936D01*
Y113524D02*
Y125236D01*
Y100824D02*
Y112536D01*
Y94780D02*
Y99836D01*
X167920Y193040D02*
X172440D01*
X162180Y94780D02*
X178180D01*
X91266Y202820D02*
X99234D01*
X219380Y169390D02*
X234380D01*
X219380D02*
Y218390D01*
X226380Y225390D02*
X235380D01*
X258380Y169390D02*
X272380D01*
X256396Y225390D02*
X265380D01*
X272380Y218390D01*
Y169390D02*
Y218390D01*
X219380D02*
X226380Y225390D01*
X73310Y3000D02*
Y10400D01*
X37000Y139666D02*
Y146634D01*
Y94666D02*
Y101634D01*
X73310Y50400D02*
X188310D01*
X73310Y40400D02*
Y50400D01*
X188310Y40400D02*
Y50400D01*
Y3000D02*
Y10400D01*
X231140Y148590D02*
X234472D01*
X232806D01*
Y158587D01*
X231140Y156921D01*
X237408Y39370D02*
Y49367D01*
X232410Y44368D01*
X239074D01*
D12*
X168486Y202110D02*
X176954D01*
X172720D02*
Y224610D01*
X168486D02*
X176954D01*
X162136Y53520D02*
X170604D01*
X95250Y146230D02*
Y168730D01*
X162136Y76020D02*
X170604D01*
X166370Y53520D02*
Y76020D01*
X97366D02*
X105834D01*
X101600Y53520D02*
Y76020D01*
X97366Y53520D02*
X105834D01*
X2750Y55650D02*
X5337D01*
X91016Y146230D02*
X99484D01*
X91016Y168730D02*
X99484D01*
X2750Y184650D02*
X4817D01*
D13*
X15241Y210818D02*
X10163D01*
X12702D01*
Y198122D01*
X10163Y195583D01*
X7623D01*
X5084Y198122D01*
X30476Y195583D02*
X20319D01*
X30476Y205739D01*
Y208278D01*
X27937Y210818D01*
X22858D01*
X20319Y208278D01*
X36833Y45718D02*
Y43178D01*
X41912Y38100D01*
X46990Y43178D01*
Y45718D01*
X41912Y38100D02*
Y30482D01*
X52068D02*
X57147D01*
X54608D01*
Y45718D01*
X52068Y43178D01*
X109223Y196847D02*
Y184152D01*
X111763Y181612D01*
X116841D01*
X119380Y184152D01*
Y196847D01*
X124458Y181612D02*
X129537D01*
X126998D01*
Y196847D01*
X124458Y194308D01*
X259080Y38098D02*
X254002D01*
X256541D01*
Y25402D01*
X254002Y22863D01*
X251462D01*
X248923Y25402D01*
X264158Y22863D02*
X269237D01*
X266698D01*
Y38098D01*
X264158Y35558D01*
X55880Y222248D02*
X45723D01*
Y214630D01*
X50802D01*
X45723D01*
Y207013D01*
X60958D02*
X66037D01*
X63498D01*
Y222248D01*
X60958Y219708D01*
X132081D02*
X129542Y222248D01*
X124463D01*
X121924Y219708D01*
Y209552D01*
X124463Y207013D01*
X129542D01*
X132081Y209552D01*
X137159Y219708D02*
X139698Y222248D01*
X144777D01*
X147316Y219708D01*
Y217169D01*
X144777Y214630D01*
X142238D01*
X144777D01*
X147316Y212091D01*
Y209552D01*
X144777Y207013D01*
X139698D01*
X137159Y209552D01*
X207010Y234948D02*
X204471Y237488D01*
X199393D01*
X196853Y234948D01*
Y224792D01*
X199393Y222253D01*
X204471D01*
X207010Y224792D01*
X212088Y222253D02*
X217167D01*
X214628D01*
Y237488D01*
X212088Y234948D01*
X81281Y185418D02*
X78742Y187957D01*
X73663D01*
X71124Y185418D01*
Y175262D01*
X73663Y172722D01*
X78742D01*
X81281Y175262D01*
X96516Y172722D02*
X86359D01*
X96516Y182879D01*
Y185418D01*
X93977Y187957D01*
X88898D01*
X86359Y185418D01*
X62231Y69848D02*
X59692Y72387D01*
X54613D01*
X52074Y69848D01*
Y59692D01*
X54613Y57153D01*
X59692D01*
X62231Y59692D01*
X77466Y72387D02*
X67309D01*
Y64770D01*
X72387Y67309D01*
X74927D01*
X77466Y64770D01*
Y59692D01*
X74927Y57153D01*
X69848D01*
X67309Y59692D01*
X201931Y68578D02*
X199392Y71118D01*
X194313D01*
X191774Y68578D01*
Y58422D01*
X194313Y55883D01*
X199392D01*
X201931Y58422D01*
X214627Y55883D02*
Y71118D01*
X207009Y63500D01*
X217166D01*
M02*
