G04*
G04 #@! TF.GenerationSoftware,Altium Limited,Altium Designer,24.2.2 (26)*
G04*
G04 Layer_Color=8421504*
%FSLAX44Y44*%
%MOMM*%
G71*
G04*
G04 #@! TF.SameCoordinates,FD859A0A-F5B6-4767-9988-903C0D25BE4A*
G04*
G04*
G04 #@! TF.FilePolarity,Positive*
G04*
G01*
G75*
%ADD14R,1.2000X2.5000*%
%ADD15R,1.3000X1.8000*%
%ADD16R,1.5000X1.9000*%
%ADD17O,2.5000X0.7000*%
%ADD18R,4.5000X1.5000*%
%ADD19R,2.5000X1.0000*%
D14*
X246380Y221390D02*
D03*
Y173390D02*
D03*
D15*
X187220Y213360D02*
D03*
X158220D02*
D03*
X109750Y157480D02*
D03*
X80750D02*
D03*
X180870Y64770D02*
D03*
X151870D02*
D03*
X87100D02*
D03*
X116100D02*
D03*
D16*
X110750Y214632D02*
D03*
X79750D02*
D03*
D17*
X145680Y189230D02*
D03*
Y176530D02*
D03*
Y163830D02*
D03*
Y151130D02*
D03*
Y138430D02*
D03*
Y125730D02*
D03*
Y113030D02*
D03*
Y100330D02*
D03*
X194680Y189230D02*
D03*
Y176530D02*
D03*
Y163830D02*
D03*
Y151130D02*
D03*
Y138430D02*
D03*
Y125730D02*
D03*
Y113030D02*
D03*
Y100330D02*
D03*
D18*
X173310Y25400D02*
D03*
X88310D02*
D03*
D19*
X53000Y85650D02*
D03*
Y110650D02*
D03*
Y130650D02*
D03*
Y155650D02*
D03*
M02*
