G04*
G04 #@! TF.GenerationSoftware,Altium Limited,Altium Designer,24.2.2 (26)*
G04*
G04 Layer_Color=8388736*
%FSLAX44Y44*%
%MOMM*%
G71*
G04*
G04 #@! TF.SameCoordinates,DFB6B591-CCAE-404B-BE94-5E2210191FEB*
G04*
G04*
G04 #@! TF.FilePolarity,Negative*
G04*
G01*
G75*
%ADD20R,1.4032X2.7032*%
%ADD21R,1.5032X2.0032*%
%ADD22R,1.7032X2.1032*%
%ADD23O,2.7032X0.9032*%
%ADD24R,4.7032X1.7032*%
%ADD25R,2.7032X1.2032*%
%ADD26C,1.7032*%
%ADD27R,1.7032X1.7032*%
%ADD28C,1.0032*%
%ADD29O,4.2032X2.7032*%
%ADD30O,2.0032X1.7032*%
D20*
X246380Y221390D02*
D03*
Y173390D02*
D03*
D21*
X187220Y213360D02*
D03*
X158220D02*
D03*
X109750Y157480D02*
D03*
X80750D02*
D03*
X180870Y64770D02*
D03*
X151870D02*
D03*
X87100D02*
D03*
X116100D02*
D03*
D22*
X110750Y214632D02*
D03*
X79750D02*
D03*
D23*
X145680Y189230D02*
D03*
Y176530D02*
D03*
Y163830D02*
D03*
Y151130D02*
D03*
Y138430D02*
D03*
Y125730D02*
D03*
Y113030D02*
D03*
Y100330D02*
D03*
X194680Y189230D02*
D03*
Y176530D02*
D03*
Y163830D02*
D03*
Y151130D02*
D03*
Y138430D02*
D03*
Y125730D02*
D03*
Y113030D02*
D03*
Y100330D02*
D03*
D24*
X173310Y25400D02*
D03*
X88310D02*
D03*
D25*
X53000Y85650D02*
D03*
Y110650D02*
D03*
Y130650D02*
D03*
Y155650D02*
D03*
D26*
X260350Y111760D02*
D03*
Y86360D02*
D03*
Y60960D02*
D03*
D27*
Y137160D02*
D03*
D28*
X27000Y98150D02*
D03*
Y143150D02*
D03*
D29*
Y63650D02*
D03*
Y177650D02*
D03*
D30*
X47000Y85650D02*
D03*
Y110650D02*
D03*
Y130650D02*
D03*
Y155650D02*
D03*
M02*
